<svg width="28" height="27" viewBox="0 0 28 27" fill="none" xmlns="http://www.w3.org/2000/svg">
<path d="M19.3867 0.166687H8.21334C3.36001 0.166687 0.466675 3.06002 0.466675 7.91335V19.0867C0.466675 23.94 3.36001 26.8334 8.21334 26.8334H19.3867C24.24 26.8334 27.1333 23.94 27.1333 19.0867V7.91335C27.1333 3.06002 24.24 0.166687 19.3867 0.166687ZM11.0933 17.3667L8.09334 20.3667C7.89334 20.5667 7.64001 20.66 7.38667 20.66C7.13334 20.66 6.86667 20.5667 6.68001 20.3667L5.68001 19.3667C5.28001 18.98 5.28001 18.34 5.68001 17.9534C6.06667 17.5667 6.69334 17.5667 7.09334 17.9534L7.38667 18.2467L9.68001 15.9534C10.0667 15.5667 10.6933 15.5667 11.0933 15.9534C11.48 16.34 11.48 16.98 11.0933 17.3667ZM11.0933 8.03335L8.09334 11.0334C7.89334 11.2334 7.64001 11.3267 7.38667 11.3267C7.13334 11.3267 6.86667 11.2334 6.68001 11.0334L5.68001 10.0334C5.28001 9.64669 5.28001 9.00669 5.68001 8.62002C6.06667 8.23335 6.69334 8.23335 7.09334 8.62002L7.38667 8.91335L9.68001 6.62002C10.0667 6.23335 10.6933 6.23335 11.0933 6.62002C11.48 7.00669 11.48 7.64669 11.0933 8.03335ZM21.2133 19.66H14.2133C13.6667 19.66 13.2133 19.2067 13.2133 18.66C13.2133 18.1134 13.6667 17.66 14.2133 17.66H21.2133C21.7733 17.66 22.2133 18.1134 22.2133 18.66C22.2133 19.2067 21.7733 19.66 21.2133 19.66ZM21.2133 10.3267H14.2133C13.6667 10.3267 13.2133 9.87335 13.2133 9.32669C13.2133 8.78002 13.6667 8.32669 14.2133 8.32669H21.2133C21.7733 8.32669 22.2133 8.78002 22.2133 9.32669C22.2133 9.87335 21.7733 10.3267 21.2133 10.3267Z" fill="white"/>
</svg>
