<svg width="22" height="23" viewBox="0 0 22 23" fill="none" xmlns="http://www.w3.org/2000/svg">
<path fill-rule="evenodd" clip-rule="evenodd" d="M11 0.5C17.0751 0.5 22 5.42487 22 11.5C22 17.5751 17.0751 22.5 11 22.5C4.92487 22.5 0 17.5751 0 11.5C0 5.42487 4.92487 0.5 11 0.5ZM11 7.33335C11 6.9963 11.2088 6.69244 11.5291 6.56346C11.8494 6.43447 12.2181 6.50577 12.4632 6.7441L16.7489 10.9107C17.0837 11.2362 17.0837 11.7638 16.7489 12.0893L12.4632 16.2559C12.2181 16.4942 11.8494 16.5655 11.5291 16.4365C11.2088 16.3076 11 16.0037 11 15.6666V13.5H6C5.44771 13.5 5 13.0523 5 12.5V10.5C5 9.9477 5.44771 9.5 6 9.5H11V7.33335Z" fill="#1E1E1E"/>
</svg>
