<svg width="20" height="20" viewBox="0 0 20 20" fill="none" xmlns="http://www.w3.org/2000/svg">
<g clip-path="url(#clip0_4323_11457)">
<path d="M16.5604 1.99999H15.9204V1.03999C15.9204 0.55999 15.6004 0.23999 15.1204 0.23999C14.6404 0.23999 14.3204 0.55999 14.3204 1.03999V1.99999H12.4804V1.03999C12.4804 0.55999 12.1604 0.23999 11.6804 0.23999C11.2004 0.23999 10.8804 0.55999 10.8804 1.03999V1.99999H9.04039V1.03999C9.04039 0.55999 8.72039 0.23999 8.24039 0.23999C7.76039 0.23999 7.44039 0.55999 7.44039 1.03999V1.99999H5.68039V1.03999C5.68039 0.55999 5.36039 0.23999 4.88039 0.23999C4.40039 0.23999 4.08039 0.55999 4.08039 1.03999V1.99999H3.44039C1.76039 1.99999 0.400391 3.35999 0.400391 5.03999V16.72C0.400391 18.4 1.76039 19.76 3.44039 19.76H16.5604C18.2404 19.76 19.6004 18.4 19.6004 16.72V5.03999C19.6004 4.39999 19.4404 3.83999 19.0404 3.35999C18.5604 2.47999 17.6004 1.99999 16.5604 1.99999ZM18.0004 16.72C18.0004 17.52 17.3604 18.16 16.5604 18.16H3.44039C2.64039 18.16 2.00039 17.52 2.00039 16.72V7.43999H18.0004V16.72Z" fill="#C25128"/>
<path d="M4.31972 12.08H6.39972C6.63972 12.08 6.87972 11.84 6.87972 11.6V9.51998C6.87972 9.27998 6.63972 9.03998 6.39972 9.03998H4.31972C4.07972 9.03998 3.83972 9.27998 3.83972 9.51998V11.6C3.75972 11.84 3.99972 12.08 4.31972 12.08Z" fill="#C25128"/>
<path d="M8.96047 12.08H11.0405C11.2805 12.08 11.5205 11.84 11.5205 11.6V9.51998C11.5205 9.27998 11.2805 9.03998 11.0405 9.03998H8.96047C8.72047 9.03998 8.48047 9.27998 8.48047 9.51998V11.6C8.48047 11.84 8.72047 12.08 8.96047 12.08Z" fill="#C25128"/>
<path d="M13.6011 12.08H15.6811C15.9211 12.08 16.1611 11.84 16.1611 11.6V9.51998C16.1611 9.27998 15.9211 9.03998 15.6811 9.03998H13.6011C13.3611 9.03998 13.1211 9.27998 13.1211 9.51998V11.6C13.1211 11.84 13.3611 12.08 13.6011 12.08Z" fill="#C25128"/>
<path d="M4.31972 16.8H6.39972C6.63972 16.8 6.87972 16.56 6.87972 16.32V14.24C6.87972 14 6.63972 13.76 6.39972 13.76H4.31972C4.07972 13.76 3.83972 14 3.83972 14.24V16.32C3.75972 16.56 3.99972 16.8 4.31972 16.8Z" fill="#C25128"/>
<path d="M8.96047 16.8H11.0405C11.2805 16.8 11.5205 16.56 11.5205 16.32V14.24C11.5205 14 11.2805 13.76 11.0405 13.76H8.96047C8.72047 13.76 8.48047 14 8.48047 14.24V16.32C8.48047 16.56 8.72047 16.8 8.96047 16.8Z" fill="#C25128"/>
<path d="M13.6011 16.8H15.6811C15.9211 16.8 16.1611 16.56 16.1611 16.32V14.24C16.1611 14 15.9211 13.76 15.6811 13.76H13.6011C13.3611 13.76 13.1211 14 13.1211 14.24V16.32C13.1211 16.56 13.3611 16.8 13.6011 16.8Z" fill="#C25128"/>
</g>
<defs>
<clipPath id="clip0_4323_11457">
<rect width="20" height="20" fill="white"/>
</clipPath>
</defs>
</svg>
