<svg width="20" height="21" viewBox="0 0 20 21" fill="none" xmlns="http://www.w3.org/2000/svg">
<path d="M18.9452 15.3611C18.1149 14.5309 17.2869 13.7005 16.4566 12.8725C15.7981 12.1806 14.9344 12.1806 14.2425 12.8725C13.7246 13.3903 13.2046 13.9081 12.6868 14.4282C12.5484 14.5666 12.4435 14.5666 12.2716 14.4974C11.9591 14.2898 11.5797 14.1514 11.2672 13.9438C9.78072 13.0109 8.5018 11.7989 7.39472 10.4151C6.84119 9.72315 6.35684 8.99775 6.01087 8.16746C5.94169 7.99559 5.94169 7.8907 6.08007 7.75232C6.6336 7.26796 7.11795 6.75016 7.63576 6.29929C8.36339 5.57389 8.36339 4.74359 7.63576 4.01819C7.18713 3.56734 6.80547 3.1879 6.39256 2.77276C5.94169 2.32412 5.52655 1.90898 5.1114 1.49382C4.45518 0.835394 3.5892 0.835394 2.89949 1.49382C2.37945 2.01164 1.86164 2.52946 1.34157 3.04952C0.857249 3.53386 0.616177 4.12087 0.546972 4.77931C0.477795 5.85066 0.71884 6.88854 1.1005 7.8907C1.86164 9.99993 3.03788 11.7989 4.45518 13.493C6.35684 15.7763 8.67364 17.6088 11.3364 18.8899C12.5484 19.4435 13.7938 19.9278 15.1062 19.997C16.0749 20.0305 16.8717 19.7894 17.5279 19.0618C17.9766 18.5774 18.4966 18.1288 18.9452 17.6445C19.6372 16.9168 19.6372 16.0531 18.9452 15.3611Z" fill="#0078B8"/>
</svg>
