<svg width="48" height="49" viewBox="0 0 48 49" fill="none" xmlns="http://www.w3.org/2000/svg">
<path d="M33 12.5H36V15.5C36 16.3284 36.6709 17 37.5 17C38.3291 17 39 16.3284 39 15.5V12.5H42C42.8291 12.5 43.5 11.8284 43.5 11C43.5 10.1716 42.8291 9.5 42 9.5H39V6.5C39 5.67163 38.3291 5 37.5 5C36.6709 5 36 5.67163 36 6.5V9.5H33C32.1709 9.5 31.5 10.1716 31.5 11C31.5 11.8284 32.1709 12.5 33 12.5Z" fill="#D6D7D6"/>
<path d="M44.115 14.9749C43.485 15.305 42.765 15.5 42 15.5C42 17.99 39.99 20 37.5 20C35.01 20 33 17.99 33 15.5C30.51 15.5 28.5 13.49 28.5 11C28.5 8.94501 29.865 7.21997 31.74 6.69501C30.42 5.61496 28.74 5 27 5H21C18.645 5 16.41 6.125 15 8L14.1 9.19998C13.26 10.325 11.91 11 10.5 11C6.35999 11 3 14.36 3 18.5V36.5C3 40.64 6.35999 44 10.5 44H37.5C41.64 44 45 40.64 45 36.5V18.5C45 17.2249 44.685 16.025 44.115 14.9749ZM24 38C18.21 38 13.5 33.29 13.5 27.5C13.5 21.71 18.21 17 24 17C29.79 17 34.5 21.71 34.5 27.5C34.5 33.29 29.79 38 24 38Z" fill="#D6D7D6"/>
<path d="M24 35C28.1421 35 31.5 31.6421 31.5 27.5C31.5 23.3579 28.1421 20 24 20C19.8579 20 16.5 23.3579 16.5 27.5C16.5 31.6421 19.8579 35 24 35Z" fill="#D6D7D6"/>
</svg>
