<svg width="24" height="21" viewBox="0 0 24 21" fill="none" xmlns="http://www.w3.org/2000/svg">
<path d="M20.0311 11.4955C19.9735 11.4664 19.9158 11.4519 19.8576 11.4519C19.7323 11.4519 19.622 11.5 19.5258 11.5963L18.6021 12.5199C18.5158 12.6066 18.4724 12.7123 18.4724 12.8375V16.5028C18.4724 17.1379 18.2468 17.6813 17.7943 18.1337C17.3422 18.5858 16.7985 18.8119 16.1635 18.8119H4.15632C3.52124 18.8119 2.9776 18.5858 2.52545 18.1337C2.07321 17.6813 1.84721 17.138 1.84721 16.5028V4.49591C1.84721 3.86093 2.07321 3.31734 2.52545 2.86505C2.9776 2.41285 3.52124 2.1868 4.15632 2.1868H16.1636C16.3753 2.1868 16.5917 2.21566 16.813 2.27344C16.8707 2.29254 16.914 2.3023 16.9425 2.3023C17.0678 2.3023 17.1785 2.25433 17.2746 2.15814L17.9818 1.45098C18.0971 1.33568 18.1406 1.19607 18.1115 1.03265C18.0826 0.87868 17.9959 0.767981 17.8516 0.700702C17.3324 0.460501 16.7693 0.339844 16.1632 0.339844H4.15632C3.01142 0.339844 2.03241 0.746347 1.21941 1.55935C0.406503 2.37246 0 3.35131 0 4.49626V16.5035C0 17.6482 0.406503 18.6272 1.21946 19.4402C2.03246 20.2534 3.01147 20.6599 4.15637 20.6599H16.1635C17.3082 20.6599 18.2873 20.2534 19.1003 19.4402C19.9134 18.6272 20.3202 17.6483 20.3202 16.5035V11.9139C20.3201 11.712 20.2234 11.5726 20.0311 11.4955Z" fill="white"/>
<path d="M23.6538 3.21129L22.0662 1.62364C21.8353 1.39279 21.5609 1.27734 21.2433 1.27734C20.9261 1.27734 20.6515 1.39279 20.4208 1.62364L11.0834 10.961L7.2881 7.16547C7.05715 6.93447 6.78288 6.81917 6.46549 6.81917C6.14805 6.81917 5.87388 6.93447 5.64288 7.16547L4.05544 8.75291C3.82454 8.98381 3.70898 9.25809 3.70898 9.57568C3.70898 9.89311 3.82454 10.1673 4.05544 10.3983L10.261 16.6038C10.492 16.8349 10.7662 16.9502 11.0836 16.9502C11.401 16.9502 11.6752 16.835 11.9062 16.6038L23.6537 4.85646C23.8844 4.62561 24.0001 4.35129 24.0001 4.03385C24.0001 3.71641 23.8847 3.44214 23.6538 3.21129Z" fill="white"/>
</svg>
