<svg width="24" height="24" viewBox="0 0 24 24" fill="none" xmlns="http://www.w3.org/2000/svg">
<path fill-rule="evenodd" clip-rule="evenodd" d="M0.821724 0.821818C1.13427 0.509351 1.55812 0.333834 2.00006 0.333834C2.44199 0.333834 2.86584 0.509351 3.17839 0.821818L12 9.64347L20.8217 0.821818C20.9755 0.662618 21.1593 0.535651 21.3627 0.448301C21.566 0.360951 21.7848 0.314984 22.006 0.313051C22.2273 0.311134 22.4468 0.353301 22.6517 0.437101C22.8565 0.520901 23.0425 0.644668 23.199 0.801151C23.3555 0.957634 23.4793 1.14372 23.5632 1.34855C23.6468 1.55338 23.689 1.77285 23.6872 1.99415C23.6852 2.21545 23.6392 2.43415 23.5518 2.63748C23.4645 2.84082 23.3375 3.02473 23.1783 3.17847L14.3567 12.0001L23.1783 20.8218C23.482 21.1361 23.65 21.5571 23.6462 21.9941C23.6423 22.4311 23.4672 22.8491 23.158 23.1581C22.849 23.4671 22.431 23.6425 21.994 23.6463C21.557 23.6501 21.136 23.4821 20.8217 23.1785L12 14.3568L3.17839 23.1785C2.86406 23.4821 2.44306 23.6501 2.00606 23.6463C1.56906 23.6425 1.15104 23.4671 0.842024 23.1581C0.533007 22.8491 0.357724 22.4311 0.353941 21.9941C0.350141 21.5571 0.518123 21.1361 0.821724 20.8218L9.64334 12.0001L0.821724 3.17847C0.509273 2.86593 0.33374 2.44208 0.33374 2.00013C0.33374 1.5582 0.509273 1.13435 0.821724 0.821818Z" fill="#323332"/>
</svg>
