<svg width="22" height="22" viewBox="0 0 22 22" fill="none" xmlns="http://www.w3.org/2000/svg">
<path d="M11.0001 19.4201C10.8751 19.4201 5.04197 19.4201 5.04197 19.4201C4.66514 19.4201 4.35095 19.2439 4.20146 18.9488C4.05202 18.6537 4.09593 18.2961 4.31894 17.9923L5.06775 16.9751C3.48002 15.3982 2.58008 13.2525 2.58008 10.9999C2.58008 6.35709 6.35729 2.57983 11.0001 2.57983C15.6431 2.57983 19.4203 6.35709 19.4203 10.9999C19.4203 15.6429 15.6431 19.4201 11.0001 19.4201ZM11.0001 18.131C14.9322 18.131 18.1312 14.9321 18.1312 10.9999C18.1312 7.06788 14.9322 3.8689 11.0001 3.8689C7.06808 3.8689 3.86914 7.06788 3.86914 10.9999C3.86914 13.0773 4.77295 15.0474 6.34882 16.4052L6.80103 16.7948L5.81747 18.131H11.0001Z" fill="#5B5D5B"/>
<path d="M8.75523 11C8.75523 11.4954 8.35364 11.8971 7.85817 11.8971C7.36261 11.8971 6.96094 11.4954 6.96094 11C6.96094 10.5045 7.36261 10.1028 7.85817 10.1028C8.35364 10.1028 8.75523 10.5045 8.75523 11Z" fill="#5B5D5B"/>
<path d="M11.0006 11.8972C11.4961 11.8972 11.8977 11.4956 11.8977 11.0001C11.8977 10.5047 11.4961 10.103 11.0006 10.103C10.5052 10.103 10.1035 10.5047 10.1035 11.0001C10.1035 11.4956 10.5052 11.8972 11.0006 11.8972Z" fill="#5B5D5B"/>
<path d="M14.1423 11.8971C14.6377 11.8971 15.0394 11.4954 15.0394 10.9999C15.0394 10.5044 14.6377 10.1028 14.1423 10.1028C13.6468 10.1028 13.2451 10.5044 13.2451 10.9999C13.2451 11.4954 13.6468 11.8971 14.1423 11.8971Z" fill="#5B5D5B"/>
</svg>
