<svg width="40" height="40" viewBox="0 0 40 40" fill="none" xmlns="http://www.w3.org/2000/svg">
<rect width="40" height="40" rx="20" fill="#3EA0A2"/>
<g clip-path="url(#clip0_1497_84594)">
<path d="M21.7625 23.6891C21.7625 23.1313 21.6265 22.6906 21.35 22.3719C21.0734 22.0531 20.5906 21.7531 19.8969 21.4719C19.2031 21.1906 18.5609 20.9047 17.975 20.6141C17.389 20.3234 16.8828 19.9859 16.4562 19.6063C16.0297 19.2266 15.7062 18.7813 15.4812 18.2797C15.2562 17.7781 15.1437 17.1688 15.1437 16.4563C15.1437 15.2609 15.5469 14.2766 16.3531 13.5031C17.1594 12.7297 18.2328 12.2797 19.5781 12.1484V9.90314H21.2656V12.1859C22.5594 12.3781 23.5765 12.9078 24.3172 13.7844C25.0578 14.6609 25.4234 15.7672 25.4234 17.1125H21.8375C21.8375 16.3766 21.6969 15.8094 21.4109 15.4156C21.1297 15.0219 20.7265 14.8203 20.2015 14.8203C19.7328 14.8203 19.3719 14.9656 19.114 15.2609C18.8562 15.5563 18.725 15.9594 18.725 16.475C18.725 16.9906 18.875 17.4125 19.1703 17.7219C19.4656 18.0313 19.9437 18.3219 20.6047 18.6031C21.2609 18.8844 21.8844 19.1703 22.4656 19.475C23.0469 19.775 23.5531 20.1172 23.9797 20.4969C24.4062 20.8766 24.7344 21.3266 24.9781 21.8328C25.2172 22.3438 25.339 22.9531 25.339 23.6703C25.339 24.8797 24.9547 25.8688 24.1859 26.6281C23.4172 27.3922 22.3719 27.8375 21.05 27.9641V30.0969H19.3625V27.9547C17.8203 27.7906 16.639 27.2609 15.814 26.3703C14.989 25.475 14.5765 24.2984 14.5765 22.8313H18.1531C18.1531 23.6375 18.3312 24.2516 18.6875 24.6734C19.0437 25.0953 19.55 25.3063 20.2109 25.3063C20.6937 25.3063 21.0687 25.1609 21.3453 24.875C21.6219 24.5844 21.7625 24.1906 21.7625 23.6891Z" fill="#E9F6F7"/>
</g>
<defs>
<clipPath id="clip0_1497_84594">
<rect width="24" height="24" fill="white" transform="translate(8 8)"/>
</clipPath>
</defs>
</svg>
