<svg width="24" height="24" viewBox="0 0 24 24" fill="none" xmlns="http://www.w3.org/2000/svg">
<g clip-path="url(#clip0_3891_20273)">
<path d="M13.7626 15.6891C13.7626 15.1313 13.6267 14.6906 13.3501 14.3719C13.0735 14.0531 12.5907 13.7531 11.897 13.4719C11.2032 13.1906 10.561 12.9047 9.9751 12.6141C9.38916 12.3234 8.88291 11.9859 8.45635 11.6063C8.02978 11.2266 7.70635 10.7813 7.48135 10.2797C7.25635 9.77814 7.14385 9.16876 7.14385 8.45626C7.14385 7.26095 7.54697 6.27657 8.35322 5.50314C9.15947 4.7297 10.2329 4.2797 11.5782 4.14845V1.90314H13.2657V4.18595C14.5595 4.37814 15.5767 4.90782 16.3173 5.78439C17.0579 6.66095 17.4235 7.7672 17.4235 9.11251H13.8376C13.8376 8.37657 13.697 7.80939 13.411 7.41564C13.1298 7.02189 12.7267 6.82032 12.2017 6.82032C11.7329 6.82032 11.372 6.96564 11.1142 7.26095C10.8563 7.55626 10.7251 7.95939 10.7251 8.47501C10.7251 8.99064 10.8751 9.41251 11.1704 9.72189C11.4657 10.0313 11.9438 10.3219 12.6048 10.6031C13.261 10.8844 13.8845 11.1703 14.4657 11.475C15.047 11.775 15.5532 12.1172 15.9798 12.4969C16.4063 12.8766 16.7345 13.3266 16.9782 13.8328C17.2173 14.3438 17.3392 14.9531 17.3392 15.6703C17.3392 16.8797 16.9548 17.8688 16.186 18.6281C15.4173 19.3922 14.372 19.8375 13.0501 19.9641V22.0969H11.3626V19.9547C9.82041 19.7906 8.63916 19.2609 7.81416 18.3703C6.98916 17.475 6.57666 16.2984 6.57666 14.8313H10.1532C10.1532 15.6375 10.3313 16.2516 10.6876 16.6734C11.0438 17.0953 11.5501 17.3063 12.211 17.3063C12.6938 17.3063 13.0688 17.1609 13.3454 16.875C13.622 16.5844 13.7626 16.1906 13.7626 15.6891Z" fill="#E9F6F7"/>
</g>
<defs>
<clipPath id="clip0_3891_20273">
<rect width="24" height="24" fill="white"/>
</clipPath>
</defs>
</svg>
