<svg width="40" height="40" viewBox="0 0 40 40" fill="none" xmlns="http://www.w3.org/2000/svg">
<rect width="40" height="40" rx="20" fill="#0078B8"/>
<g clip-path="url(#clip0_1497_84593)">
<path d="M29.494 18.7812C29.3453 18.7812 29.1968 18.7342 29.0719 18.6406L26.6093 16.7936L24.1466 18.6406C23.9051 18.8217 23.5749 18.8287 23.3261 18.6573C23.0772 18.4861 22.9657 18.1754 23.0487 17.8849L24.0028 14.5451L21.4784 12.494C21.2475 12.3063 21.1596 11.9935 21.2592 11.713C21.3588 11.4327 21.6241 11.2452 21.9219 11.2452H25.0207L25.9423 8.48083C26.0381 8.19373 26.3067 8 26.6093 8C26.9118 8 27.1806 8.19373 27.2764 8.48083L28.1978 11.2452H31.2968C31.5944 11.2452 31.8597 11.4327 31.9593 11.713C32.0589 11.9935 31.9712 12.3063 31.7401 12.494L29.2157 14.5451L30.17 17.8849C30.253 18.1754 30.1413 18.4861 29.8924 18.6573C29.7723 18.74 29.633 18.7812 29.494 18.7812Z" fill="white"/>
<path d="M28.7729 29.6562C28.6242 29.6562 28.4757 29.6092 28.3509 29.5156L26.6093 28.2095L24.8678 29.5156C24.6263 29.6969 24.296 29.7035 24.0473 29.5323C23.7985 29.3611 23.6868 29.0502 23.7697 28.7599L24.4536 26.3666L22.6504 24.9014C22.4193 24.7137 22.3315 24.4009 22.4311 24.1204C22.5307 23.8401 22.796 23.6526 23.0937 23.6526H25.2914L25.9423 21.6996C26.0381 21.4125 26.3067 21.2188 26.6093 21.2188C26.912 21.2188 27.1806 21.4125 27.2764 21.6996L27.9273 23.6526H30.125C30.4227 23.6526 30.688 23.8401 30.7876 24.1204C30.8872 24.4009 30.7993 24.7137 30.5685 24.9014L28.765 26.3666L29.4489 28.7599C29.5319 29.0502 29.4202 29.3611 29.1714 29.5323C29.0512 29.6151 28.9119 29.6562 28.7729 29.6562Z" fill="white"/>
<path d="M15.6397 32C15.2816 32 14.9754 31.7279 14.9406 31.3641C14.9311 31.2645 14.7158 28.8854 15.4224 25.6455C15.8371 23.7443 16.4857 21.9372 17.3503 20.2745C18.4332 18.1918 19.8588 16.3322 21.5874 14.7476C21.8735 14.4854 22.3185 14.5046 22.5809 14.7908C22.8433 15.0772 22.8239 15.522 22.5377 15.7843C18.9116 19.1081 17.4201 23.1175 16.8072 25.896C16.1374 28.9321 16.3386 31.2086 16.3407 31.2311C16.3767 31.6175 16.0929 31.9604 15.7067 31.9969C15.6842 31.9991 15.6619 32 15.6397 32Z" fill="white"/>
<path d="M13.4849 32C13.2194 32 12.9655 31.8489 12.8464 31.5924C10.9176 27.4304 10.5986 22.3923 12.0334 18.7573C12.1761 18.396 12.5844 18.2189 12.9457 18.3616C13.3069 18.504 13.484 18.9125 13.3416 19.2736C12.0611 22.5173 12.3748 27.2303 14.1223 31.0012C14.2856 31.3535 14.1324 31.7715 13.7801 31.9346C13.6843 31.9789 13.5838 32 13.4849 32Z" fill="white"/>
<path d="M18.9219 13.3837C18.7419 13.3837 18.5621 13.3152 18.4247 13.1779C18.1501 12.9032 18.1501 12.4581 18.4247 12.1834C18.8235 11.7846 19.0431 11.2549 19.0431 10.6918C19.0431 10.129 18.8235 9.59906 18.4247 9.20026C18.1501 8.92578 18.1501 8.48065 18.4247 8.20599C18.6992 7.93134 19.1445 7.93134 19.419 8.20599C20.0835 8.87048 20.4493 9.75323 20.4493 10.6918C20.4493 11.6304 20.0835 12.5134 19.419 13.1779C19.2819 13.315 19.1019 13.3837 18.9219 13.3837Z" fill="white"/>
<path d="M18.0321 32C17.9842 32 17.9355 31.995 17.8866 31.9848C17.5064 31.9051 17.2633 31.5311 17.3431 31.1511C17.3525 31.1068 17.5795 30.0525 18.3293 28.9538C19.3399 27.4731 20.8179 26.5982 22.6037 26.4242C22.9905 26.3869 23.334 26.6694 23.3717 27.056C23.4094 27.4425 23.1265 27.7862 22.74 27.8239C21.3797 27.9565 20.2955 28.5902 19.518 29.7073C18.9114 30.5789 18.7208 31.4338 18.719 31.4424C18.6494 31.7735 18.3575 32 18.0321 32Z" fill="white"/>
<path d="M15.1395 18.3125C14.9908 18.3125 14.8425 18.2654 14.7176 18.1719L12.6875 16.6494L10.6574 18.1719C10.4161 18.353 10.0858 18.3597 9.83693 18.1885C9.58827 18.0173 9.47658 17.7064 9.55952 17.4162L10.3516 14.6442L8.25984 12.9448C8.02876 12.7571 7.94105 12.4442 8.04048 12.1638C8.14009 11.8833 8.40559 11.696 8.70314 11.696H11.2613L12.0205 9.41833C12.1162 9.13123 12.3848 8.9375 12.6875 8.9375C12.9902 8.9375 13.2588 9.13123 13.3546 9.41833L14.1137 11.696H16.6719C16.9696 11.696 17.2349 11.8833 17.3345 12.1638C17.4342 12.4442 17.3463 12.7571 17.1154 12.9448L15.0236 14.6442L15.8155 17.4162C15.8985 17.7064 15.7868 18.0173 15.5381 18.1885C15.418 18.2713 15.2786 18.3125 15.1395 18.3125Z" fill="white"/>
</g>
<defs>
<clipPath id="clip0_1497_84593">
<rect width="24" height="24" fill="white" transform="translate(8 8)"/>
</clipPath>
</defs>
</svg>
