<svg width="24" height="24" viewBox="0 0 24 24" fill="none" xmlns="http://www.w3.org/2000/svg">
<g clip-path="url(#clip0_3891_20264)">
<path d="M21.4941 10.7812C21.3454 10.7812 21.1969 10.7342 21.0721 10.6406L18.6095 8.79364L16.1467 10.6406C15.9052 10.8217 15.575 10.8287 15.3262 10.6573C15.0774 10.4861 14.9659 10.1754 15.0488 9.88495L16.003 6.5451L13.4785 4.49396C13.2476 4.30627 13.1597 3.99353 13.2593 3.71301C13.3589 3.43268 13.6242 3.24518 13.922 3.24518H17.0208L17.9424 0.480835C18.0382 0.193725 18.3068 0 18.6095 0C18.912 0 19.1808 0.193725 19.2765 0.480835L20.1979 3.24518H23.297C23.5945 3.24518 23.8598 3.43268 23.9594 3.71301C24.0591 3.99353 23.9713 4.30627 23.7403 4.49396L21.2158 6.5451L22.1701 9.88495C22.2531 10.1754 22.1414 10.4861 21.8926 10.6573C21.7724 10.74 21.6331 10.7812 21.4941 10.7812Z" fill="white"/>
<path d="M20.773 21.6562C20.6244 21.6562 20.4759 21.6092 20.351 21.5156L18.6095 20.2095L16.868 21.5156C16.6264 21.6969 16.2961 21.7035 16.0475 21.5323C15.7986 21.3611 15.6869 21.0502 15.7699 20.7599L16.4538 18.3666L14.6505 16.9014C14.4195 16.7137 14.3316 16.4009 14.4312 16.1204C14.5308 15.8401 14.7961 15.6526 15.0938 15.6526H17.2915L17.9424 13.6996C18.0382 13.4125 18.3068 13.2188 18.6095 13.2188C18.9121 13.2188 19.1808 13.4125 19.2765 13.6996L19.9275 15.6526H22.1251C22.4228 15.6526 22.6881 15.8401 22.7878 16.1204C22.8874 16.4009 22.7995 16.7137 22.5686 16.9014L20.7652 18.3666L21.4491 20.7599C21.532 21.0502 21.4203 21.3611 21.1715 21.5323C21.0514 21.6151 20.912 21.6562 20.773 21.6562Z" fill="white"/>
<path d="M7.6396 24C7.28145 24 6.9753 23.7279 6.94051 23.3641C6.93098 23.2645 6.71565 20.8854 7.42226 17.6455C7.83699 15.7443 8.48555 13.9372 9.35017 12.2745C10.4331 10.1918 11.8587 8.3322 13.5872 6.74761C13.8734 6.4854 14.3184 6.50463 14.5808 6.79082C14.8432 7.0772 14.8237 7.52196 14.5375 7.78435C10.9115 11.1081 9.41994 15.1175 8.80708 17.896C8.13728 20.9321 8.33852 23.2086 8.34053 23.2311C8.3766 23.6175 8.09279 23.9604 7.70662 23.9969C7.6841 23.9991 7.66176 24 7.6396 24Z" fill="white"/>
<path d="M5.48504 24C5.21954 24 4.96557 23.8489 4.84656 23.5924C2.91772 19.4304 2.59875 14.3923 4.03357 10.7573C4.17621 10.396 4.58453 10.2189 4.9458 10.3616C5.30707 10.504 5.48413 10.9125 5.34167 11.2736C4.06122 14.5173 4.37488 19.2303 6.12243 23.0012C6.28576 23.3535 6.1325 23.7715 5.78021 23.9346C5.68445 23.9789 5.58392 24 5.48504 24Z" fill="white"/>
<path d="M10.9219 5.38367C10.7419 5.38367 10.5621 5.31518 10.4247 5.17786C10.1501 4.9032 10.1501 4.45807 10.4247 4.18341C10.8235 3.78461 11.0431 3.25488 11.0431 2.69183C11.0431 2.12897 10.8235 1.59906 10.4247 1.20026C10.1501 0.925781 10.1501 0.480652 10.4247 0.205994C10.6992 -0.0686645 11.1445 -0.0686645 11.419 0.205994C12.0835 0.870483 12.4493 1.75323 12.4493 2.69183C12.4493 3.63043 12.0835 4.51337 11.419 5.17786C11.2819 5.315 11.1019 5.38367 10.9219 5.38367Z" fill="white"/>
<path d="M10.0321 24C9.9841 24 9.9354 23.995 9.88651 23.9848C9.50638 23.9051 9.26322 23.5311 9.34305 23.1511C9.35239 23.1068 9.57944 22.0525 10.3293 20.9538C11.3398 19.4731 12.8178 18.5982 14.6037 18.4242C14.9904 18.3869 15.3339 18.6694 15.3716 19.056C15.4093 19.4425 15.1264 19.7862 14.7399 19.8239C13.3796 19.9565 12.2954 20.5902 11.518 21.7073C10.9113 22.5789 10.7207 23.4338 10.7189 23.4424C10.6493 23.7735 10.3575 24 10.0321 24Z" fill="white"/>
<path d="M7.13948 10.3125C6.9908 10.3125 6.84248 10.2654 6.7176 10.1719L4.68751 8.64935L2.65742 10.1719C2.41609 10.353 2.08577 10.3597 1.83693 10.1885C1.58827 10.0173 1.47658 9.70642 1.55952 9.4162L2.35164 6.64416L0.259841 4.94476C0.0287622 4.75708 -0.0589453 4.44415 0.0404809 4.16382C0.14009 3.8833 0.405593 3.69598 0.70314 3.69598H3.26131L4.02046 1.41833C4.11622 1.13123 4.38484 0.9375 4.68751 0.9375C4.99019 0.9375 5.2588 1.13123 5.35457 1.41833L6.11372 3.69598H8.67189C8.96962 3.69598 9.23494 3.8833 9.33455 4.16382C9.43416 4.44415 9.34626 4.75708 9.11537 4.94476L7.02357 6.64416L7.8155 9.4162C7.89845 9.70642 7.78676 10.0173 7.5381 10.1885C7.41798 10.2713 7.27864 10.3125 7.13948 10.3125Z" fill="white"/>
</g>
<defs>
<clipPath id="clip0_3891_20264">
<rect width="24" height="24" fill="white"/>
</clipPath>
</defs>
</svg>
