<svg width="29" height="29" viewBox="0 0 29 29" fill="none" xmlns="http://www.w3.org/2000/svg">
<g clip-path="url(#clip0_3718_8081)">
<path d="M28.2 1.32031C28.2 1.77341 27.8328 2.14062 27.3797 2.14062C26.9266 2.14062 26.5594 1.77341 26.5594 1.32031C26.5594 0.867218 26.9266 0.5 27.3797 0.5C27.8328 0.5 28.2 0.867218 28.2 1.32031Z" fill="white"/>
<path d="M25.2764 13.0781C25.1029 13.0781 24.9296 13.0232 24.784 12.9141L21.9109 10.7592L19.0377 12.9141C18.7559 13.1253 18.3708 13.1335 18.0805 12.9335C17.7902 12.7338 17.6601 12.3712 17.7568 12.0324L18.87 8.13595L15.9248 5.74295C15.6554 5.52399 15.5529 5.15912 15.6691 4.83185C15.7853 4.50479 16.0948 4.28604 16.4422 4.28604H20.0575L21.1327 1.06097C21.2444 0.726013 21.5578 0.5 21.9109 0.5C22.2638 0.5 22.5774 0.726013 22.6892 1.06097L23.7641 4.28604H27.3797C27.7268 4.28604 28.0364 4.50479 28.1526 4.83185C28.2688 5.15912 28.1665 5.52399 27.8969 5.74295L24.9517 8.13595L26.0651 12.0324C26.1618 12.3712 26.0315 12.7338 25.7412 12.9335C25.6011 13.0301 25.4385 13.0781 25.2764 13.0781Z" fill="white"/>
<path d="M24.4351 25.7656C24.2616 25.7656 24.0884 25.7107 23.9427 25.6016L21.9109 24.0778L19.8792 25.6016C19.5974 25.813 19.212 25.8207 18.9219 25.621C18.6316 25.4213 18.5013 25.0585 18.5981 24.7199L19.396 21.9277L17.2922 20.2183C17.0226 19.9993 16.9201 19.6344 17.0363 19.3072C17.1525 18.9801 17.462 18.7614 17.8094 18.7614H20.3733L21.1327 16.4828C21.2444 16.1479 21.5578 15.9219 21.9109 15.9219C22.2641 15.9219 22.5774 16.1479 22.6892 16.4828L23.4486 18.7614H26.0125C26.3598 18.7614 26.6694 18.9801 26.7856 19.3072C26.9018 19.6344 26.7993 19.9993 26.5299 20.2183L24.4259 21.9277L25.2238 24.7199C25.3206 25.0585 25.1903 25.4213 24.8999 25.621C24.7598 25.7176 24.5972 25.7656 24.4351 25.7656Z" fill="white"/>
<path d="M9.113 28.5C8.69516 28.5 8.33798 28.1826 8.29739 27.7581C8.28628 27.6419 8.03506 24.8663 8.85943 21.0864C9.34329 18.8684 10.0999 16.7601 11.1087 14.8202C12.372 12.3905 14.0353 10.2209 16.0519 8.37223C16.3858 8.06633 16.9049 8.08876 17.211 8.42265C17.5171 8.75675 17.4945 9.27565 17.1606 9.58177C12.9302 13.4595 11.1901 18.1372 10.4751 21.3787C9.69363 24.9208 9.9284 27.5767 9.93075 27.603C9.97284 28.0537 9.64172 28.4539 9.19119 28.4964C9.16491 28.4989 9.13885 28.5 9.113 28.5Z" fill="white"/>
<path d="M6.5991 28.5C6.28934 28.5 5.99305 28.3238 5.85419 28.0245C3.60389 23.1688 3.23176 17.291 4.90571 13.0502C5.07212 12.6287 5.5485 12.4221 5.96998 12.5885C6.39146 12.7547 6.59803 13.2313 6.43183 13.6526C4.93797 17.4369 5.3039 22.9354 7.34272 27.3347C7.53327 27.7457 7.35447 28.2334 6.94346 28.4238C6.83173 28.4755 6.71445 28.5 6.5991 28.5Z" fill="white"/>
<path d="M16.9891 16.1953C16.9891 16.6484 16.6219 17.0156 16.1688 17.0156C15.7157 17.0156 15.3484 16.6484 15.3484 16.1953C15.3484 15.7422 15.7157 15.375 16.1688 15.375C16.6219 15.375 16.9891 15.7422 16.9891 16.1953Z" fill="white"/>
<path d="M12.9422 6.78094C12.7322 6.78094 12.5224 6.70105 12.3622 6.54083C12.0418 6.2204 12.0418 5.70108 12.3622 5.38065C12.8275 4.91537 13.0836 4.29736 13.0836 3.64047C13.0836 2.98379 12.8275 2.36557 12.3622 1.9003C12.0418 1.58008 12.0418 1.06076 12.3622 0.740326C12.6824 0.419891 13.202 0.419891 13.5222 0.740326C14.2974 1.51556 14.7242 2.54544 14.7242 3.64047C14.7242 4.7355 14.2974 5.76559 13.5222 6.54083C13.3622 6.70084 13.1522 6.78094 12.9422 6.78094Z" fill="white"/>
<path d="M11.9042 28.5C11.8482 28.5 11.7914 28.4942 11.7344 28.4823C11.2909 28.3893 11.0072 27.9529 11.1003 27.5096C11.1112 27.4579 11.3761 26.2279 12.2509 24.9462C13.4299 23.2186 15.1543 22.1979 17.2377 21.995C17.6889 21.9514 18.0897 22.281 18.1337 22.732C18.1777 23.1829 17.8476 23.5839 17.3967 23.6279C15.8097 23.7826 14.5448 24.5219 13.6378 25.8252C12.93 26.8421 12.7076 27.8395 12.7055 27.8495C12.6243 28.2357 12.2838 28.5 11.9042 28.5Z" fill="white"/>
<path d="M8.52937 12.5312C8.35591 12.5312 8.18288 12.4763 8.03719 12.3672L5.66875 10.5909L3.30031 12.3672C3.01875 12.5785 2.63338 12.5864 2.34306 12.3866C2.05296 12.1869 1.92265 11.8242 2.01943 11.4856L2.94356 8.25152L0.50313 6.26889C0.233538 6.04993 0.131212 5.68484 0.247209 5.35779C0.36342 5.03052 0.673174 4.81198 1.02031 4.81198H4.00484L4.89052 2.15472C5.00224 1.81976 5.31563 1.59375 5.66875 1.59375C6.02187 1.59375 6.33525 1.81976 6.44698 2.15472L7.33266 4.81198H10.3172C10.6645 4.81198 10.9741 5.03052 11.0903 5.35779C11.2065 5.68484 11.104 6.04993 10.8346 6.26889L8.39415 8.25152L9.31807 11.4856C9.41484 11.8242 9.28453 12.1869 8.99443 12.3866C8.85429 12.4832 8.69173 12.5312 8.52937 12.5312Z" fill="white"/>
</g>
<defs>
<clipPath id="clip0_3718_8081">
<rect width="28" height="28" fill="white" transform="translate(0.200012 0.5)"/>
</clipPath>
</defs>
</svg>
