<svg width="40" height="40" viewBox="0 0 40 40" fill="none" xmlns="http://www.w3.org/2000/svg">
<rect x="0.5" y="0.5" width="39" height="39" rx="19.5" fill="white" fill-opacity="0.7"/>
<rect x="0.5" y="0.5" width="39" height="39" rx="19.5" stroke="#444444"/>
<g clip-path="url(#clip0_1_23262)">
<path d="M11.6667 10H23.3333C24.2498 10 25 10.7502 25 11.6667V23.3333C25 24.2498 24.2498 25 23.3333 25H11.6667C10.7502 25 10 24.2498 10 23.3333V11.6667C10 10.7502 10.7502 10 11.6667 10ZM14.585 17.5L14.5843 15.467L20.7845 21.6667L21.6667 20.7812L15.4695 14.585L17.5007 14.5833V13.3333H14.1675C13.7067 13.3342 13.3342 13.7067 13.335 14.1667L13.3332 17.5007L14.585 17.5Z" fill="#444444"/>
<path d="M21.6667 26.6667V28.3333H28.3333V21.6667H26.6667V20H29.1667C29.6248 20 30 20.3752 30 20.8333V29.1667C30 29.624 29.6248 30 29.1667 30H20.8333C20.3752 30 20 29.624 20 29.1667V26.6667H21.6667Z" fill="#444444"/>
</g>
<defs>
<clipPath id="clip0_1_23262">
<rect width="20" height="20" fill="white" transform="matrix(-1 0 0 1 30 10)"/>
</clipPath>
</defs>
</svg>
