<svg width="25" height="25" viewBox="0 0 25 25" fill="none" xmlns="http://www.w3.org/2000/svg">
<g clip-path="url(#clip0_3718_27995)">
<g clip-path="url(#clip1_3718_27995)">
<path d="M22.3137 17.8921H7.82289C6.82234 17.8921 6.01111 18.7037 6.01111 19.7046C6.01111 20.7048 6.82234 21.5164 7.82289 21.5164H22.3137C23.3138 21.5164 24.125 20.7048 24.125 19.7046C24.125 18.7041 23.3138 17.8921 22.3137 17.8921Z" fill="#5B5D5B"/>
<path d="M22.3137 10.6797H7.82289C6.82234 10.6797 6.01111 11.4909 6.01111 12.4919C6.01111 13.4924 6.82234 14.3036 7.82289 14.3036H22.3137C23.3138 14.3036 24.125 13.4924 24.125 12.4919C24.125 11.4913 23.3138 10.6797 22.3137 10.6797Z" fill="#5B5D5B"/>
<path d="M7.82289 7.09172H22.3137C23.3138 7.09172 24.125 6.28048 24.125 5.27955C24.125 4.27862 23.3138 3.46777 22.3137 3.46777H7.82289C6.82234 3.46777 6.01111 4.27901 6.01111 5.27955C6.01111 6.2801 6.82234 7.09172 7.82289 7.09172Z" fill="#5B5D5B"/>
<path d="M1.96415 7.13534C2.97989 7.13534 3.80331 6.31192 3.80331 5.29619C3.80331 4.28045 2.97989 3.45703 1.96415 3.45703C0.948417 3.45703 0.125 4.28045 0.125 5.29619C0.125 6.31192 0.948417 7.13534 1.96415 7.13534Z" fill="#5B5D5B"/>
<path d="M1.96414 14.3309C2.97966 14.3309 3.8029 13.5076 3.8029 12.4921C3.8029 11.4766 2.97966 10.6533 1.96414 10.6533C0.948611 10.6533 0.125366 11.4766 0.125366 12.4921C0.125366 13.5076 0.948611 14.3309 1.96414 14.3309Z" fill="#5B5D5B"/>
<path d="M1.96415 21.5431C2.97989 21.5431 3.80331 20.7196 3.80331 19.7039C3.80331 18.6882 2.97989 17.8647 1.96415 17.8647C0.948417 17.8647 0.125 18.6882 0.125 19.7039C0.125 20.7196 0.948417 21.5431 1.96415 21.5431Z" fill="#5B5D5B"/>
</g>
</g>
<defs>
<clipPath id="clip0_3718_27995">
<rect width="24" height="24" fill="white" transform="translate(0.125 0.5)"/>
</clipPath>
<clipPath id="clip1_3718_27995">
<rect width="24" height="24" fill="white" transform="translate(0.125 0.5)"/>
</clipPath>
</defs>
</svg>
