<svg width="33" height="33" viewBox="0 0 33 33" fill="none" xmlns="http://www.w3.org/2000/svg">
<path d="M19.0706 7.40944H15.4619L16.3511 5.63117L21.7674 4.0837L21.3149 2.5L15.2019 4.2466L13.6205 7.40944H2.60002V11.5271H19.0706V7.40944Z" fill="white"/>
<path d="M14.1294 24.7036H28.953V26.3506H14.1294V24.7036Z" fill="white"/>
<path d="M10.8353 23.0565C10.8353 18.9935 13.5241 15.5467 17.2158 14.4019L17.3055 13.1741H4.39339L5.96561 30.4683H11.2785C10.9972 29.9834 10.8353 29.421 10.8353 28.8212V23.0565Z" fill="white"/>
<path d="M12.4824 23.0565H30.6C30.6 18.9697 27.2752 15.6448 23.1883 15.6448H19.8942C15.8073 15.6448 12.4824 18.9697 12.4824 23.0565Z" fill="white"/>
<path d="M12.4824 28.8212C12.4824 29.7295 13.2213 30.4683 14.1295 30.4683H28.9513C29.8595 30.4683 30.5983 29.7295 30.5983 28.8212V27.9977H12.4824V28.8212Z" fill="white"/>
</svg>
