<svg width="40" height="40" viewBox="0 0 40 40" fill="none" xmlns="http://www.w3.org/2000/svg">
<path fill-rule="evenodd" clip-rule="evenodd" d="M6 30C6 28.8954 6.89542 28 8 28H20C21.1046 28 22 28.8954 22 30C22 31.1046 21.1046 32 20 32H8C6.89542 32 6 31.1046 6 30ZM6 10C6 8.89542 6.89542 8 8 8H32C33.1046 8 34 8.89542 34 10C34 11.1046 33.1046 12 32 12H8C6.89542 12 6 11.1046 6 10ZM6 20C6 18.8954 6.89542 18 8 18H32C33.1046 18 34 18.8954 34 20C34 21.1046 33.1046 22 32 22H8C6.89542 22 6 21.1046 6 20Z" fill="black"/>
</svg>
