<svg width="24" height="24" viewBox="0 0 24 24" fill="none" xmlns="http://www.w3.org/2000/svg">
<path d="M22.3232 10.4743C21.668 9.68474 20.6422 9.19424 19.646 9.19424H17.0107C17.6038 8.24915 18.0502 7.2981 18.3222 6.39247C18.7372 5.01051 18.7227 3.80582 18.2801 2.90863C17.7816 1.8981 16.7714 1.34155 15.4356 1.34155C15.1318 1.34155 14.858 1.52483 14.7422 1.80571C13.7022 4.32838 10.9893 7.95416 8.43337 10.3427C8.17256 9.43672 7.33673 8.77185 6.348 8.77185H3.13706C1.94039 8.77185 0.966797 9.74544 0.966797 10.9421V20.488C0.966797 21.6846 1.94039 22.6582 3.13706 22.6582H6.348C7.08005 22.6582 7.72814 22.2935 8.12142 21.7366C8.71636 22.309 9.50508 22.6582 10.3693 22.6582H18.4544C19.3482 22.6582 20.1441 22.2777 20.7562 21.5577C21.2608 20.9641 21.6191 20.1622 21.7925 19.2387L22.9842 12.8906C23.1441 12.0388 22.9093 11.1808 22.3232 10.4743ZM7.01822 20.488C7.01822 20.8576 6.71756 21.1583 6.348 21.1583H3.13706C2.7675 21.1583 2.4668 20.8576 2.4668 20.488V10.9421C2.4668 10.5726 2.7675 10.2719 3.13706 10.2719H6.348C6.71756 10.2719 7.01822 10.5726 7.01822 10.9421V20.488ZM21.5099 12.6138L20.3182 18.962C20.1189 20.0238 19.5246 21.1583 18.4543 21.1583H10.3693C9.34861 21.1583 8.51827 20.2351 8.51827 19.1004V12.2688C11.3453 9.92183 14.5114 5.8911 15.9091 2.87844C16.6549 3.00463 16.8597 3.4198 16.935 3.57224C17.4217 4.55901 17.0177 6.83108 14.9804 9.48782C14.8066 9.71437 14.7766 10.02 14.903 10.276C15.0293 10.5321 15.29 10.6942 15.5756 10.6942H19.6461C20.1992 10.6942 20.7969 10.9838 21.1688 11.4321C21.3782 11.6846 21.6075 12.0944 21.5099 12.6138Z" fill="#5B5D5B"/>
</svg>
