<svg width="24" height="24" viewBox="0 0 24 24" fill="none" xmlns="http://www.w3.org/2000/svg">
<path d="M12 0.1875C6.93398 0.1875 2.8125 4.30898 2.8125 9.375C2.8125 11.8359 4.30345 14.9962 7.24392 18.7677C8.59109 20.4912 10.05 22.1243 11.6112 23.6565C11.7159 23.7566 11.8552 23.8125 12 23.8125C12.1448 23.8125 12.2841 23.7566 12.3888 23.6565C13.95 22.1243 15.4089 20.4912 16.7561 18.7677C19.6965 14.9962 21.1875 11.8359 21.1875 9.375C21.1875 4.30898 17.066 0.1875 12 0.1875ZM12 15.9375C8.38125 15.9375 5.4375 12.9937 5.4375 9.375C5.4375 5.75625 8.38125 2.8125 12 2.8125C15.6187 2.8125 18.5625 5.75625 18.5625 9.375C18.5625 12.9937 15.6187 15.9375 12 15.9375Z" fill="#0078B8"/>
<path d="M16.5034 8.5838L12.3784 4.8338C12.2749 4.73967 12.14 4.68752 12 4.68752C11.8601 4.68752 11.7252 4.73967 11.6217 4.8338L7.49665 8.5838C7.40055 8.67119 7.33764 8.78913 7.31859 8.91762C7.29954 9.04611 7.32552 9.17723 7.39212 9.28875C7.44467 9.37365 7.51832 9.4435 7.60589 9.49147C7.69347 9.53945 7.79197 9.56392 7.89181 9.5625H8.43753V13.125C8.43753 13.2742 8.49679 13.4173 8.60228 13.5227C8.70777 13.6282 8.85085 13.6875 9.00003 13.6875H10.3125C10.4617 13.6875 10.6048 13.6282 10.7103 13.5227C10.8158 13.4173 10.875 13.2742 10.875 13.125V11.0625C10.875 10.9133 10.9343 10.7702 11.0398 10.6648C11.1453 10.5593 11.2883 10.5 11.4375 10.5H12.5625C12.7117 10.5 12.8548 10.5593 12.9603 10.6648C13.0658 10.7702 13.125 10.9133 13.125 11.0625V13.125C13.125 13.2742 13.1843 13.4173 13.2898 13.5227C13.3953 13.6282 13.5383 13.6875 13.6875 13.6875H15C15.1492 13.6875 15.2923 13.6282 15.3978 13.5227C15.5033 13.4173 15.5625 13.2742 15.5625 13.125V9.5625H16.1082C16.2081 9.56392 16.3066 9.53945 16.3942 9.49147C16.4817 9.4435 16.5554 9.37365 16.6079 9.28875C16.6745 9.17723 16.7005 9.04611 16.6815 8.91762C16.6624 8.78913 16.5995 8.67119 16.5034 8.5838Z" fill="#0078B8"/>
</svg>
