<svg width="25" height="25" viewBox="0 0 25 25" fill="none" xmlns="http://www.w3.org/2000/svg">
<g clip-path="url(#clip0_3718_23470)">
<g clip-path="url(#clip1_3718_23470)">
<path d="M12.875 1.1001C6.58938 1.1001 1.47498 6.2145 1.47498 12.5001C1.47498 15.4049 2.56821 18.1706 4.55036 20.2876C6.69681 22.5836 9.73008 23.9001 12.875 23.9001C16.0199 23.9001 19.0531 22.5836 21.1996 20.2876C23.1817 18.1706 24.275 15.4049 24.275 12.5001C24.275 6.2145 19.1606 1.1001 12.875 1.1001ZM12.875 4.8369C15.3795 4.8369 17.4101 6.86751 17.4101 9.37204C17.4101 11.8766 15.3795 13.9072 12.875 13.9072C10.3704 13.9072 8.33982 11.8766 8.33982 9.37204C8.33982 6.86751 10.3704 4.8369 12.875 4.8369ZM6.42298 17.6061C7.49936 16.5318 8.9844 15.8662 10.6253 15.8662H15.1246C17.4733 15.8662 19.506 17.229 20.4708 19.2091C20.4076 19.2828 20.3423 19.3544 20.277 19.4239C18.3685 21.4651 15.6702 22.6362 12.875 22.6362C10.0797 22.6362 7.3814 21.4651 5.47298 19.4239C5.40768 19.3544 5.34238 19.2828 5.27919 19.2091C5.56988 18.6109 5.95745 18.0716 6.42298 17.6061Z" fill="#5B5D5B"/>
</g>
</g>
<defs>
<clipPath id="clip0_3718_23470">
<rect width="24" height="24" fill="white" transform="translate(0.875 0.5)"/>
</clipPath>
<clipPath id="clip1_3718_23470">
<rect width="24" height="24" fill="white" transform="translate(0.875 0.5)"/>
</clipPath>
</defs>
</svg>
