<svg width="24" height="24" viewBox="0 0 24 24" fill="none" xmlns="http://www.w3.org/2000/svg">
<g clip-path="url(#clip0_3891_20258)">
<g clip-path="url(#clip1_3891_20258)">
<path d="M21.5467 16.4292C23.3408 15.7428 24.6153 14.006 24.6153 11.9706C24.6153 9.93516 23.3408 8.19832 21.5467 7.51191L21.5467 4.5467H2.4533L2.4533 7.51191C0.659223 8.19832 -0.615293 9.93516 -0.615293 11.9706C-0.615293 14.006 0.659223 15.7428 2.4533 16.4292V19.3944H21.5467V16.4292ZM12 14.4375L9.56496 15.7177L10.03 13.0062L8.06001 11.0859L10.7825 10.6903L12 8.22335L13.2176 10.6903L15.9401 11.0859L13.97 13.0062L14.4351 15.7177L12 14.4375Z" fill="#FBEEEA"/>
</g>
</g>
<defs>
<clipPath id="clip0_3891_20258">
<rect width="24" height="24" fill="white"/>
</clipPath>
<clipPath id="clip1_3891_20258">
<rect width="24" height="24" fill="white"/>
</clipPath>
</defs>
</svg>
