<svg width="32" height="32" viewBox="0 0 32 32" fill="none" xmlns="http://www.w3.org/2000/svg">
<path d="M16 7.5625C11.3473 7.5625 7.5625 11.3473 7.5625 16C7.5625 20.6527 11.3473 24.4375 16 24.4375C20.6527 24.4375 24.4375 20.6527 24.4375 16C24.4375 11.3473 20.6527 7.5625 16 7.5625ZM20.0805 15.1202L15.7253 19.4754C15.5422 19.6585 15.3023 19.7501 15.0625 19.7501C14.8227 19.7501 14.5828 19.6585 14.3997 19.4754L11.5872 16.6629C11.221 16.2967 11.221 15.7034 11.5872 15.3372C11.9534 14.971 12.5467 14.971 12.9129 15.3372L15.0625 17.4868L18.7548 13.7945C19.121 13.4283 19.7143 13.4283 20.0805 13.7945C20.4467 14.1607 20.4467 14.7539 20.0805 15.1202Z" fill="#47B881"/>
<path d="M30.5379 13.2397C29.9126 12.7957 29.7221 11.968 30.0416 11.2713C30.5094 10.2505 30.4536 9.06031 29.8924 8.08712C29.3303 7.11394 28.2643 6.47031 27.1474 6.36594C26.3838 6.29363 25.7778 5.68756 25.7054 4.924C25.6011 3.80706 24.9574 2.74112 23.9833 2.179C23.0101 1.61869 21.8199 1.52163 20.8 1.9895C20.1069 2.309 19.2766 2.08838 18.8316 1.46306C18.1826 0.546563 17.1243 0 16 0C14.8766 0 13.8183 0.546562 13.1692 1.46119C12.7252 2.08744 11.8984 2.34925 11.1999 2.02975C10.1791 1.56194 8.98794 1.61594 8.01569 2.179C7.0425 2.74112 6.39887 3.80706 6.2945 4.924C6.22219 5.6875 5.61606 6.29356 4.85256 6.36587C3.73562 6.47025 2.66969 7.11388 2.10756 8.088C1.54638 9.06031 1.4905 10.2505 1.95831 11.2713C2.27781 11.968 2.05625 12.7957 1.43187 13.2397C0.515437 13.8888 0 14.9471 0 16.0714C0 17.1958 0.546562 18.2541 1.46119 18.9023C2.0865 19.3472 2.27781 20.1758 1.95831 20.8724C1.4905 21.8923 1.54631 23.0816 2.10756 24.0557C2.66969 25.0289 3.73562 25.6726 4.85256 25.7769C5.61613 25.8493 6.22219 26.4553 6.2945 27.2189C6.39887 28.3358 7.0425 29.4018 8.01663 29.9639C8.98981 30.526 10.18 30.5819 11.1999 30.1131C11.8948 29.7954 12.7243 29.9136 13.1683 30.537C13.8174 31.4534 14.8757 32 16 32C17.1243 32 18.1826 31.4534 18.8308 30.5388C19.2767 29.9135 20.1061 29.7936 20.8001 30.1131C21.8191 30.5781 23.0111 30.5251 23.9843 29.9638C24.9575 29.4017 25.6011 28.3358 25.7055 27.2188C25.7778 26.4552 26.3839 25.8492 27.1474 25.7769C28.2644 25.6725 29.3303 25.0289 29.8924 24.0548C30.4536 23.0816 30.5095 21.8923 30.0417 20.8733C29.7222 20.1757 29.9135 19.3471 30.537 18.9031C31.4534 18.254 32 17.1957 32 16.0714C32 14.9472 31.4534 13.8888 30.5379 13.2397ZM16 26.3125C10.3137 26.3125 5.6875 21.6863 5.6875 16C5.6875 10.3137 10.3136 5.6875 16 5.6875C21.6864 5.6875 26.3125 10.3137 26.3125 16C26.3125 21.6863 21.6863 26.3125 16 26.3125Z" fill="#47B881"/>
</svg>
