<svg width="25" height="25" viewBox="0 0 25 25" fill="none" xmlns="http://www.w3.org/2000/svg">
<g clip-path="url(#clip0_3718_23461)">
<path d="M23.6252 13.4997C23.8752 13.4997 24.1253 13.2496 24.1253 12.9995V9.99951C24.1253 9.14943 23.4754 8.49951 22.6253 8.49951H18.625V22.4997H22.6248C23.4749 22.4997 24.1248 21.8498 24.1248 20.9997V17.9997C24.1246 17.8671 24.0718 17.74 23.9781 17.6463C23.8843 17.5525 23.7573 17.4998 23.6247 17.4995C23.0996 17.4914 22.5988 17.2771 22.2304 16.9029C21.862 16.5287 21.6555 16.0247 21.6555 15.4996C21.6555 14.9745 21.862 14.4704 22.2304 14.0963C22.5988 13.7221 23.0996 13.5078 23.6247 13.4997H23.6252Z" fill="#5B5D5B"/>
<path d="M23.2752 7.00021C23.5253 6.90037 23.6751 6.60037 23.5752 6.35029L22.5749 3.50005C22.3248 2.69989 21.4229 2.30005 20.6751 2.55013L6.47522 7.44997H22.4751C22.7122 7.25262 22.9834 7.10021 23.2752 7.00021Z" fill="#5B5D5B"/>
<path d="M1.12512 10V13C1.12512 13.3 1.32528 13.5002 1.62528 13.5002C1.89052 13.4961 2.15393 13.5447 2.40017 13.6434C2.64642 13.7421 2.87057 13.8887 3.0596 14.0748C3.24862 14.261 3.39873 14.4828 3.5012 14.7275C3.60366 14.9722 3.65643 15.2348 3.65643 15.5001C3.65643 15.7654 3.60366 16.028 3.5012 16.2727C3.39873 16.5173 3.24862 16.7392 3.0596 16.9253C2.87057 17.1114 2.64642 17.2581 2.40017 17.3568C2.15393 17.4554 1.89052 17.5041 1.62528 17.5C1.32528 17.5 1.12512 17.7002 1.12512 18.0002V21.0002C1.12512 21.8502 1.77504 22.5002 2.62512 22.5002H17.6251V8.5H2.62512C1.77696 8.5 1.12512 9.14992 1.12512 10ZM7.12512 12.4998H10.1251C10.4251 12.4998 10.6253 12.7 10.6253 13C10.6253 13.3 10.4251 13.5002 10.1251 13.5002H7.12512C6.82512 13.5002 6.62496 13.3 6.62496 13C6.62496 12.7 6.82512 12.4998 7.12512 12.4998ZM7.12512 14.9997H13.6248C13.9248 14.9997 14.125 15.1998 14.125 15.4998C14.125 15.7998 13.9248 16 13.6248 16H7.12512C6.82512 16 6.62496 15.7998 6.62496 15.4998C6.62496 15.1998 6.82512 14.9997 7.12512 14.9997ZM7.12512 17.4995H13.6248C13.9248 17.4995 14.125 17.6997 14.125 17.9997C14.125 18.2997 13.9248 18.4998 13.6248 18.4998H7.12512C6.82512 18.4998 6.62496 18.2997 6.62496 17.9997C6.62496 17.6997 6.82512 17.5 7.12512 17.5V17.4995Z" fill="#5B5D5B"/>
</g>
<defs>
<clipPath id="clip0_3718_23461">
<rect width="24" height="24" fill="white" transform="translate(0.625 0.5)"/>
</clipPath>
</defs>
</svg>
