<svg width="32" height="32" viewBox="0 0 32 32" fill="none" xmlns="http://www.w3.org/2000/svg">
<rect width="32" height="32" rx="16" fill="white" fill-opacity="0.7"/>
<path d="M15.2322 7.45406C14.4772 6.69904 13.2234 6.65249 12.4038 7.45406L7.45407 12.4038C6.67302 13.1849 6.67302 14.4512 7.45407 15.2322C8.20908 15.9872 9.46282 16.0427 10.2825 15.2322L10.636 14.8785L13.5875 17.83C12.6971 20.2398 13.2933 23.2137 15.2322 25.1317C15.4416 25.3388 15.7637 25.3118 15.9394 25.1317L20.1822 20.8888L23.364 24.0711C23.5592 24.2663 23.8758 24.2663 24.0711 24.0711C24.2513 23.8908 24.283 23.5776 24.0711 23.364L20.8892 20.1818L25.1317 15.9393C25.312 15.7591 25.3467 15.4472 25.1317 15.2322C23.2399 13.3404 20.3664 12.6633 17.8305 13.587L14.879 10.6355L15.2322 10.2825C16.0382 9.47241 15.9873 8.20907 15.2322 7.45406ZM13.1109 8.16116C13.5014 7.77064 14.1346 7.77064 14.5251 8.16116C14.8951 8.53113 14.9302 9.15828 14.5251 9.57538L13.818 10.2825C13.6378 10.4627 13.6124 10.7834 13.818 10.9896L17.3521 14.5239C17.4948 14.6666 17.7093 14.7095 17.8959 14.6327C19.8628 13.8235 22.2396 14.0568 24.0565 15.6005L15.601 24.056C14.1314 22.3556 13.818 19.7963 14.6326 17.8963C14.7271 17.6759 14.6326 17.4605 14.5251 17.3525L10.9896 13.818C10.8094 13.6378 10.4994 13.6076 10.2825 13.818L9.57539 14.5251C9.18487 14.9156 8.5517 14.9156 8.16118 14.5251C7.79121 14.1552 7.75156 13.5307 8.16118 13.1109L13.1109 8.16116Z" fill="#444444"/>
</svg>
