<svg width="20" height="20" viewBox="0 0 20 20" fill="none" xmlns="http://www.w3.org/2000/svg">
<path d="M13.5156 0C11.9595 0 10.8188 0.633164 9.71562 1.24551C8.69812 1.81027 7.73703 2.34375 6.48438 2.34375C5.30023 2.34375 4.07684 1.72617 3.55469 1.4277V0H2.38281V20H3.55469V12.1272C4.28824 12.4814 5.37559 12.8906 6.48438 12.8906C8.04043 12.8906 9.18121 12.2575 10.2844 11.6451C11.3019 11.0804 12.263 10.5469 13.5156 10.5469C15.0692 10.5469 16.6906 11.61 16.7062 11.6204L17.6172 12.2277V1.44422C16.4123 0.649062 14.9417 0 13.5156 0ZM16.4453 10.1384C15.7118 9.78418 14.6244 9.375 13.5156 9.375C11.9595 9.375 10.8188 10.0082 9.71562 10.6205C8.69812 11.1853 7.73703 11.7188 6.48438 11.7188C5.30004 11.7188 4.07641 11.101 3.55469 10.8027V2.75219C4.28824 3.10641 5.37559 3.51562 6.48438 3.51562C8.04043 3.51562 9.18121 2.88246 10.2844 2.27012C11.3019 1.70535 12.263 1.17188 13.5156 1.17188C14.6998 1.17188 15.9236 1.78961 16.4453 2.08789V10.1384Z" fill="#5B5D5B"/>
</svg>
