<svg width="24" height="24" viewBox="0 0 24 24" fill="none" xmlns="http://www.w3.org/2000/svg">
<g opacity="0.4">
<path d="M24 5.02859C22.891 3.44483 20.6861 3.02745 19.1021 4.13647L10.9571 9.83918L7.99542 7.76548C9.09815 5.86151 8.57953 3.39772 6.74339 2.11222C4.80446 0.755052 2.13305 1.226 0.775275 3.16461C-0.581894 5.10322 -0.11127 7.77523 1.82766 9.133C3.15821 10.0645 4.83408 10.1344 6.19303 9.46033L9.82059 11.9997L6.19303 14.5396C4.83408 13.8657 3.15821 13.9356 1.82766 14.8669C-0.11127 16.2247 -0.581894 18.8964 0.775275 20.835C2.13305 22.774 4.80474 23.2449 6.74339 21.8878C8.5792 20.6023 9.09787 18.1385 7.99542 16.2345L10.9574 14.1605L19.1017 19.8632C20.6858 20.9722 22.8906 20.5549 23.9996 18.9711L14.0432 12.0002L24 5.02859ZM4.29502 7.85341C3.06816 7.85341 2.07352 6.85877 2.07352 5.63192C2.07352 4.40506 3.06816 3.41042 4.29502 3.41042C5.5222 3.41042 6.51652 4.40506 6.51652 5.63192C6.51652 6.85877 5.52216 7.85341 4.29502 7.85341ZM4.29502 20.59C3.06816 20.59 2.07352 19.5954 2.07352 18.3685C2.07352 17.1417 3.06816 16.147 4.29502 16.147C5.5222 16.147 6.51652 17.1417 6.51652 18.3685C6.51652 19.5954 5.52216 20.59 4.29502 20.59Z" fill="black"/>
<path d="M19.2531 11.4078H17.1797V12.8888H19.2531V11.4078Z" fill="black"/>
<path d="M22.8078 11.4078H20.7344V12.8888H22.8078V11.4078Z" fill="black"/>
</g>
</svg>
