<svg width="24" height="25" viewBox="0 0 24 25" fill="none" xmlns="http://www.w3.org/2000/svg">
<g clip-path="url(#clip0_197_1887)">
<path d="M2.85938 22.3906V23.7969C2.85938 24.185 3.17437 24.5 3.5625 24.5H20.4375C20.8256 24.5 21.1406 24.185 21.1406 23.7969V22.3906H2.85938Z" fill="white"/>
<path d="M15.583 8.79594C16.664 7.64844 17.1224 6.08891 16.8402 4.51672C16.4324 2.24141 14.4037 0.5 11.9999 0.5C9.5685 0.5 7.56179 2.27047 7.1596 4.51672C6.87741 6.08891 7.33585 7.64844 8.41679 8.79594C9.1485 9.57312 9.41944 10.5673 9.51788 11.2644C9.7246 12.7302 9.28022 13.8378 8.72288 14.6562H15.2779C14.7201 13.8378 14.2757 12.7292 14.4819 11.2644C14.5804 10.5673 14.8513 9.57312 15.583 8.79594Z" fill="white"/>
<path d="M21.8438 20.9844H2.15625C1.76794 20.9844 1.45312 20.6696 1.45312 20.2812V19.5781C1.45312 17.6396 3.03023 16.0625 4.96875 16.0625H19.0312C20.9698 16.0625 22.5469 17.6396 22.5469 19.5781V20.2812C22.5469 20.6696 22.2321 20.9844 21.8438 20.9844Z" fill="white"/>
</g>
<defs>
<clipPath id="clip0_197_1887">
<rect width="24" height="24" fill="white" transform="translate(0 0.5)"/>
</clipPath>
</defs>
</svg>
