<svg width="80" height="80" viewBox="0 0 80 80" fill="none" xmlns="http://www.w3.org/2000/svg">
<g filter="url(#filter0_d_281_1666)">
<g clip-path="url(#clip0_281_1666)">
<rect x="2" y="2" width="72" height="72" rx="36" fill="white"/>
<path d="M35.6567 56.4023C42.4612 57.1529 49.2091 52.8103 55.5778 51.0628C61.5912 49.4081 68.3473 53.3794 70.4378 55.2319C69.8042 54.2148 68.4966 52.8063 67.4594 51.8902C65.9822 50.5866 64.267 49.5534 62.3782 48.9722C59.6378 48.1327 56.7078 48.3386 53.9755 49.0973C49.9316 50.2193 46.4365 52.8467 42.3078 53.6256C38.5383 54.3399 34.3813 54.0211 31.1284 51.8336C23.2948 46.5668 23.3432 33.8135 30.7329 26.4561C29.1428 27.3278 26.4347 28.93 24.4046 33.983C21.4463 41.3404 23.9486 52.2493 31.8872 55.4579C33.1383 55.9623 34.3975 56.265 35.6607 56.4023H35.6567Z" fill="#5C90C6"/>
<path d="M57.1322 52.4431C53.0641 52.7377 50.0049 54.3641 46.8286 55.7041C42.5183 57.5242 37.5582 58.6543 32.9008 57.7058C27.3515 56.5798 24.1349 52.4754 22.6618 47.2045C21.5762 43.3139 21.9313 37.8816 23.0008 33.987C21.6125 37.3529 20.7246 42.2888 21.0434 45.9171C21.3623 49.5453 22.7627 53.1171 25.2246 55.8049C28.3968 59.2718 33.3206 60.4946 37.873 60.422C43.3537 60.3332 47.8094 57.9803 52.7654 55.9422C64.7923 51.0023 71.5524 60.0789 75.4914 62C72.4605 58.4928 66.9717 51.7327 57.1363 52.4431H57.1322Z" fill="#0078B8"/>
<path d="M50.1776 19.8776C44.6928 15.5067 40.4995 15.2444 35.6524 15.6924C35.6524 15.6924 36.3628 16.0596 37.1538 17.0282C38.1184 18.2148 38.0861 19.1269 38.0861 19.1269C38.0861 19.1269 31.6932 18.0776 24.352 21.1166C18.3587 23.5946 14.2462 28.1955 8.11566 29.2933C1.98517 30.3991 0.257812 25.5439 0.257812 25.5439C0.257812 25.5439 1.58158 29.035 7.71208 27.9332C13.8426 26.8354 17.4587 21.2256 23.448 18.7475C30.7892 15.7085 37.4565 18.6224 37.4565 18.6224C37.4565 18.6224 37.4121 17.9605 36.0681 16.8426C34.6637 15.6722 33.0009 14.9498 33.0009 14.9498C33.6022 14.6834 45.1489 11.9592 50.1776 19.8816" fill="#C25128"/>
<path d="M50.0085 20.0915C45.6417 16.5359 41.2467 15.3089 35.6771 15.9668L35.778 15.4542C36.1413 15.6601 36.4238 15.8942 36.7063 16.1524C37.6023 17.0121 38.3893 18.0856 38.3691 19.3973L38.0462 19.4013C32.9206 19.5103 27.9242 20.5919 23.3274 22.7511C17.8789 25.4027 12.939 30.165 6.49776 30.1529C3.66458 30.1569 0.879821 28.3731 0 25.6327L0.512556 25.443C0.831391 26.1332 1.47309 26.7385 2.15516 27.1139C4.37085 28.2924 7.12332 27.9453 9.43588 27.1986C12.6686 26.0847 15.2556 23.7399 17.9718 21.7179C20.7 19.6112 23.852 17.8919 27.3027 17.3592C30.7413 16.7942 34.3009 17.117 37.57 18.3681L37.1866 18.6345C36.8839 17.791 36.0848 17.1897 35.3906 16.6489C34.4422 15.9507 33.3686 15.3856 32.291 14.9175C33.2556 14.5098 34.2807 14.3363 35.3058 14.1991C37.7032 13.8924 40.1489 13.9166 42.522 14.4372C45.6942 15.1031 48.6888 16.9314 50.4121 19.7242L49.952 20.0148C47.4215 15.8942 42.3404 14.3726 37.7233 14.5583C36.1857 14.6148 34.5915 14.7681 33.1144 15.1919V14.6915C34.4906 15.3332 35.7902 16.1202 36.8718 17.1977C37.2471 17.6175 37.6224 18.0049 37.7354 18.5982L37.8 19.0421L37.352 18.8646C32.6502 17.0726 27.1332 17.2018 22.5928 19.4296C17.9435 21.6574 14.5574 25.9879 9.61749 27.7112C7.14754 28.5063 4.26996 28.8493 1.89283 27.5861C1.10179 27.1421 0.411659 26.5246 0 25.6408L0.512556 25.4511C1.59821 27.6587 4.03991 28.9785 6.47758 28.7686C15.8045 27.7556 19.8969 18.5578 32.8076 18.2794C34.5996 18.2511 36.3834 18.3843 38.131 18.8605L37.8162 19.1188C37.6345 17.4843 36.1655 16.1968 34.7691 15.4986L35.6328 15.4179C41.3556 14.752 45.8677 16.0152 50.3516 19.6596L50.0126 20.0874L50.0085 20.0915Z" fill="#C25128"/>
<path d="M55.2707 27.8444C55.2707 27.8444 56.0012 30.0924 56.2635 31.6865C56.5218 33.2444 55.194 34.1161 56.5985 36.1098C57.8577 37.8977 59.2743 39.722 59.8514 40.9246C60.5294 42.3453 60.5657 42.7811 60.3155 43.548C60.0612 44.3107 59.694 45.2269 58.8061 45.5982C57.7891 46.026 56.4935 45.9614 55.9527 45.4166C55.3998 44.8637 56.2433 44.222 55.5935 43.5036C54.9397 42.7852 53.2083 42.5148 51.9209 41.4735C50.6334 40.4282 50.4357 39.1569 48.6922 38.8946C47.1021 38.6605 45.3908 36.7314 45.4877 34.9838C45.5967 33.0587 47.1787 31.404 47.1787 31.404C47.1787 31.404 44.0429 33.3332 44.1155 35.2623C44.1962 37.2681 47.0819 39.2538 48.6438 39.6291C50.2097 40.0004 50.698 40.735 51.9855 41.7802C53.2729 42.8255 53.9994 42.9708 54.6491 43.6933C55.3029 44.4116 55.1012 44.9242 55.65 45.4811C56.1908 46.026 57.9222 46.6677 58.9393 46.2399C59.8312 45.8646 60.4447 44.5811 60.6949 43.8184C60.9451 43.0556 60.8442 42.2847 60.1662 40.8641C59.589 39.6614 59.2581 37.4659 58.1725 35.6215C57.0505 33.7166 57.7285 32.6188 57.3169 31.4282C56.8527 30.0964 55.2787 27.8403 55.2787 27.8403" fill="#C25128"/>
<path d="M55.4971 27.687C55.5617 27.7798 57.0993 29.9874 57.5675 31.3435C57.741 31.8358 57.741 32.3 57.741 32.7883C57.741 33.5632 57.741 34.3623 58.4029 35.4843C59.081 36.6385 59.4644 37.8977 59.7993 39.0116C60.0092 39.7018 60.1908 40.2991 60.4047 40.7511C61.0868 42.1798 61.2361 43.0354 60.9455 43.9071C60.8325 44.2542 60.207 46.0018 59.0366 46.4941C58.7702 46.6071 58.4594 46.6556 58.1366 46.6556C57.1114 46.6556 55.937 46.1672 55.4487 45.6749C55.1379 45.3601 55.033 45.0614 54.9321 44.7668C54.8312 44.4802 54.7384 44.2098 54.4397 43.8789C54.1249 43.5278 53.7778 43.3179 53.3379 43.0515C52.9343 42.8054 52.4298 42.4986 51.8043 41.9941C51.5056 41.752 51.2473 41.526 51.0092 41.3161C50.2262 40.626 49.7096 40.1699 48.5715 39.8995C46.9491 39.5121 43.9222 37.4619 43.8334 35.2784C43.7567 33.2161 46.8926 31.2627 47.0258 31.178L48.8218 30.0722L47.3648 31.5977C47.3648 31.5977 45.8514 33.204 45.7505 35.004C45.6576 36.6749 47.3366 38.4224 48.7249 38.6282C49.9639 38.8139 50.4966 39.4758 51.0617 40.178C51.3563 40.5412 51.659 40.9166 52.0868 41.2636C52.7204 41.7762 53.4832 42.1031 54.1572 42.3897C54.8433 42.6802 55.4325 42.9305 55.7917 43.326C56.2236 43.8022 56.1307 44.2784 56.0662 44.6215C56.0097 44.9242 55.9895 45.0735 56.1428 45.2269C56.5908 45.6749 57.7854 45.7314 58.6975 45.348C59.4442 45.0332 59.7913 44.2542 60.0576 43.4632C60.2675 42.8134 60.2836 42.4623 59.6056 41.0457C59.1859 40.1659 58.2899 38.9309 57.3455 37.6233C57.0227 37.1753 56.6958 36.7233 56.3769 36.2672C55.4204 34.9071 55.6505 33.9749 55.8563 33.1556C55.9733 32.6914 56.0823 32.2515 55.9975 31.7309C55.7392 30.1731 55.0209 27.9493 55.0128 27.9251M55.0128 27.9251L55.4971 27.6829L55.0128 27.9251ZM58.0236 46.1027C58.3182 46.1148 58.5967 46.0825 58.8307 45.9856C59.0366 45.8968 59.2343 45.7515 59.4119 45.5619C59.2626 45.6749 59.1011 45.7717 58.9155 45.8484C58.6289 45.9695 58.3262 46.0542 58.0236 46.1027ZM54.363 43.0636C54.5325 43.1928 54.6899 43.3341 54.8473 43.5076C55.2227 43.9193 55.3437 44.2704 55.4527 44.5811C55.4688 44.6296 55.485 44.674 55.5011 44.7184C55.5092 44.6497 55.5253 44.5811 55.5375 44.5166C55.598 44.2058 55.6424 43.9636 55.3962 43.6892C55.1823 43.4551 54.811 43.2654 54.3671 43.0677L54.363 43.0636ZM45.9159 32.7076C45.1451 33.4018 44.35 34.3421 44.3863 35.2542C44.459 37.0784 47.2316 39.0116 48.7047 39.3628C49.3101 39.508 49.7702 39.7058 50.1657 39.952C49.7904 39.5605 49.3666 39.2699 48.6523 39.165C46.8523 38.8986 45.1168 36.7798 45.2137 34.9717C45.2621 34.1282 45.5688 33.3412 45.9159 32.7076ZM56.0662 29.5717C56.2437 30.2376 56.4253 30.9883 56.5343 31.6381C56.6392 32.2677 56.5101 32.7843 56.385 33.2847C56.1832 34.0959 56.0096 34.7941 56.8209 35.9524C57.1397 36.4045 57.4666 36.8565 57.7854 37.3004C58.3827 38.1278 58.9599 38.9269 59.4159 39.6332C59.3675 39.4838 59.3231 39.3264 59.2747 39.165C58.9478 38.0834 58.5765 36.8565 57.9267 35.7587C57.1881 34.5076 57.1881 33.5955 57.1881 32.7843C57.1881 32.3201 57.1881 31.9246 57.0469 31.517C56.8532 30.9601 56.4536 30.2255 56.0621 29.5757L56.0662 29.5717Z" fill="#C25128"/>
<path d="M63.8392 29.4749C62.241 31.069 61.111 29.8623 60.2877 27.8444C59.5612 26.0605 58.0962 26.0081 56.2921 26.4803C57.8096 25.1444 57.624 22.1134 57.624 22.1134C57.624 22.1134 56.2437 23.3323 54.472 23.9336C52.7688 24.5148 51.8486 24.6278 51.8486 24.6278C51.7356 24.6439 51.3966 24.422 51.0899 24.2C50.759 23.9578 50.4522 23.6874 50.1536 23.413C49.0477 22.4 47.6634 21.5202 46.4527 21.1206C39.1074 18.691 31.1648 21.7018 27.5244 26.456C31.0719 23.7439 33.7033 23.1708 36.6737 22.6785C46.2751 21.0924 51.6832 25.0919 51.6832 25.0919C51.6832 25.0919 52.902 24.9386 54.5365 24.2403C56.2639 23.5018 57.3818 22.4807 57.3818 22.4807C57.3818 22.4807 57.2164 25.6771 55.0208 26.9605C57.1074 26.7587 58.3383 27.348 59.2787 29.1238C60.2957 31.0489 62.241 31.065 63.8392 29.4708" fill="#C25128"/>
<path d="M61.474 30.8995C61.3448 30.8995 61.2197 30.8915 61.0946 30.8713C60.239 30.7421 59.5287 30.1811 59.0404 29.2569C58.1726 27.6103 57.0507 27.0453 55.0489 27.235L53.8179 27.352L54.8874 26.7264C56.3444 25.8708 56.857 24.0829 57.0265 23.1184C56.526 23.4937 55.6987 24.0385 54.6453 24.4906C52.9946 25.1968 51.7717 25.3583 51.7193 25.3623L51.6103 25.3744L51.5215 25.3098C51.4691 25.2695 46.0812 21.3991 36.722 22.9448C33.7193 23.4412 31.1484 24.0305 27.6937 26.6699L26.0713 27.913L27.3143 26.2906C30.8013 21.73 38.7278 18.2793 46.5453 20.8623C47.752 21.2619 49.1726 22.1376 50.343 23.2112C50.674 23.5139 50.9525 23.7601 51.2592 23.978C51.6547 24.2646 51.8081 24.3332 51.8525 24.3533C52.026 24.3291 52.9058 24.1798 54.391 23.6753C56.0901 23.0982 57.4381 21.9197 57.4502 21.9076L57.87 21.5403L57.9063 22.0973C57.9144 22.2103 58.0395 24.5107 57.0386 26.0403C58.3987 25.8063 59.8314 25.9717 60.5538 27.7435C61.0906 29.0672 61.6677 29.7977 62.265 29.9229C62.6807 30.0116 63.1489 29.7937 63.6574 29.2852L64.0408 29.6726C63.2377 30.4758 62.3417 30.8995 61.4821 30.8995H61.474ZM56.5301 26.7022C57.874 26.8919 58.7901 27.6143 59.5206 28.9986C59.9283 29.7655 60.4973 30.2255 61.1753 30.3305C61.3731 30.3628 61.5749 30.3587 61.7807 30.3305C61.135 30.0197 60.5619 29.2327 60.0372 27.9453C59.4803 26.5731 58.4915 26.2179 56.526 26.7022H56.5301ZM41.0161 20.5193C36.4273 20.5193 32.2099 22.3394 29.413 24.8376C32 23.2838 34.1753 22.8157 36.6332 22.4121C43.5749 21.2659 48.317 22.9771 50.4924 24.0789C50.3229 23.9376 50.1534 23.7843 49.9717 23.6188C48.8538 22.5937 47.5058 21.7623 46.3717 21.3829C44.5717 20.7897 42.7677 20.5233 41.0161 20.5233V20.5193Z" fill="#C25128"/>
<path d="M41.989 32.7722C37.2589 35.791 33.7517 41.07 34.3329 46.7565C34.5468 48.5686 35.2975 50.3525 36.4921 52.1041C35.5235 51.6682 34.6437 51.0023 33.9051 50.1789C29.9661 45.7475 31.7499 38.5798 35.9392 34.9677C37.5939 33.4987 39.6603 32.4453 41.8154 32.2556L41.989 32.7722Z" fill="#C25128"/>
</g>
</g>
<defs>
<filter id="filter0_d_281_1666" x="0" y="0" width="80" height="80" filterUnits="userSpaceOnUse" color-interpolation-filters="sRGB">
<feFlood flood-opacity="0" result="BackgroundImageFix"/>
<feColorMatrix in="SourceAlpha" type="matrix" values="0 0 0 0 0 0 0 0 0 0 0 0 0 0 0 0 0 0 127 0" result="hardAlpha"/>
<feOffset dx="2" dy="2"/>
<feGaussianBlur stdDeviation="2"/>
<feComposite in2="hardAlpha" operator="out"/>
<feColorMatrix type="matrix" values="0 0 0 0 0 0 0 0 0 0 0 0 0 0 0 0 0 0 0.25 0"/>
<feBlend mode="normal" in2="BackgroundImageFix" result="effect1_dropShadow_281_1666"/>
<feBlend mode="normal" in="SourceGraphic" in2="effect1_dropShadow_281_1666" result="shape"/>
</filter>
<clipPath id="clip0_281_1666">
<rect x="2" y="2" width="72" height="72" rx="36" fill="white"/>
</clipPath>
</defs>
</svg>
