<svg width="33" height="33" viewBox="0 0 33 33" fill="none" xmlns="http://www.w3.org/2000/svg">
<g clip-path="url(#clip0_3718_8054)">
<path d="M23.2571 5.2291V4.08624C23.2571 3.78314 23.3775 3.49245 23.5919 3.27812C23.8062 3.06379 24.0969 2.94338 24.4 2.94338C24.7031 2.94338 24.9938 3.06379 25.2081 3.27812C25.4224 3.49245 25.5429 3.78314 25.5429 4.08624V5.2291C25.5429 5.53221 25.4224 5.8229 25.2081 6.03723C24.9938 6.25155 24.7031 6.37196 24.4 6.37196C24.0969 6.37196 23.8062 6.25155 23.5919 6.03723C23.3775 5.8229 23.2571 5.53221 23.2571 5.2291ZM23.2571 16.6577V17.8006C23.2571 18.1037 23.3775 18.3944 23.5919 18.6087C23.8062 18.823 24.0969 18.9434 24.4 18.9434C24.7031 18.9434 24.9938 18.823 25.2081 18.6087C25.4224 18.3944 25.5429 18.1037 25.5429 17.8006V16.6577C25.5429 16.3546 25.4224 16.0639 25.2081 15.8496C24.9938 15.6352 24.7031 15.5148 24.4 15.5148C24.0969 15.5148 23.8062 15.6352 23.5919 15.8496C23.3775 16.0639 23.2571 16.3546 23.2571 16.6577ZM28.9714 10.9434C28.9714 11.2465 29.0918 11.5372 29.3062 11.7515C29.5205 11.9659 29.8112 12.0863 30.1143 12.0863H31.2571C31.5603 12.0863 31.8509 11.9659 32.0653 11.7515C32.2796 11.5372 32.4 11.2465 32.4 10.9434C32.4 10.6403 32.2796 10.3496 32.0653 10.1353C31.8509 9.92095 31.5603 9.80054 31.2571 9.80054H30.1143C29.8112 9.80054 29.5205 9.92095 29.3062 10.1353C29.0918 10.3496 28.9714 10.6403 28.9714 10.9434ZM29.2487 14.1759C29.1428 14.0686 29.0168 13.9833 28.8778 13.9248C28.7389 13.8664 28.5897 13.8361 28.439 13.8356C28.2882 13.8351 28.1389 13.8644 27.9995 13.9218C27.8601 13.9793 27.7335 14.0637 27.6269 14.1703C27.5203 14.2769 27.4359 14.4035 27.3784 14.5429C27.321 14.6823 27.2917 14.8316 27.2922 14.9824C27.2927 15.1331 27.323 15.2823 27.3814 15.4212C27.4398 15.5602 27.5252 15.6863 27.6325 15.7921L28.4406 16.6002C28.5467 16.7063 28.6727 16.7905 28.8114 16.848C28.95 16.9054 29.0986 16.935 29.2487 16.935C29.3988 16.935 29.5474 16.9054 29.6861 16.848C29.8247 16.7906 29.9507 16.7064 30.0568 16.6003C30.163 16.4941 30.2472 16.3681 30.3046 16.2295C30.362 16.0908 30.3916 15.9422 30.3916 15.7921C30.3916 15.6421 30.362 15.4934 30.3046 15.3548C30.2472 15.2161 30.163 15.0901 30.0569 14.984L29.2487 14.1759ZM29.2487 7.7109L30.0569 6.9028C30.163 6.79667 30.2472 6.67068 30.3046 6.53202C30.3621 6.39336 30.3916 6.24474 30.3916 6.09465C30.3916 5.94457 30.3621 5.79595 30.3046 5.65729C30.2472 5.51863 30.163 5.39264 30.0569 5.28651C29.9508 5.18038 29.8248 5.0962 29.6861 5.03876C29.5474 4.98133 29.3988 4.95176 29.2487 4.95176C29.0987 4.95176 28.95 4.98133 28.8114 5.03876C28.6727 5.0962 28.5467 5.18038 28.4406 5.28651L27.6325 6.09461C27.5264 6.20073 27.4422 6.32672 27.3847 6.46538C27.3273 6.60403 27.2977 6.75265 27.2977 6.90273C27.2977 7.05281 27.3273 7.20143 27.3847 7.34008C27.4421 7.47874 27.5263 7.60473 27.6325 7.71086C27.7386 7.81699 27.8646 7.90117 28.0032 7.95861C28.1419 8.01605 28.2905 8.04561 28.4406 8.04562C28.5907 8.04562 28.7393 8.01606 28.8779 7.95863C29.0166 7.9012 29.1426 7.81702 29.2487 7.7109ZM24.4 14.372C25.0781 14.372 25.741 14.1709 26.3048 13.7942C26.8686 13.4174 27.3081 12.882 27.5676 12.2555C27.8271 11.629 27.895 10.9396 27.7627 10.2745C27.6304 9.60944 27.3039 8.99852 26.8244 8.51903C26.3449 8.03953 25.734 7.71299 25.0689 7.5807C24.4038 7.44841 23.7144 7.5163 23.0879 7.77581C22.4614 8.03531 21.926 8.47476 21.5492 9.03858C21.1725 9.60241 20.9714 10.2653 20.9714 10.9434C20.9724 11.8524 21.334 12.7239 21.9767 13.3667C22.6195 14.0094 23.491 14.371 24.4 14.372ZM19.5513 14.1759L18.7431 14.984C18.637 15.0901 18.5528 15.2161 18.4954 15.3548C18.4379 15.4934 18.4084 15.6421 18.4084 15.7921C18.4084 15.9422 18.4379 16.0908 18.4954 16.2295C18.5528 16.3681 18.637 16.4941 18.7431 16.6003C18.8493 16.7064 18.9753 16.7906 19.1139 16.848C19.2526 16.9054 19.4012 16.935 19.5513 16.935C19.7014 16.935 19.85 16.9054 19.9886 16.848C20.1273 16.7905 20.2533 16.7063 20.3594 16.6002L21.1675 15.7921C21.2748 15.6863 21.3601 15.5602 21.4185 15.4212C21.477 15.2823 21.5073 15.1331 21.5078 14.9824C21.5083 14.8316 21.479 14.6823 21.4216 14.5429C21.3641 14.4035 21.2797 14.2769 21.1731 14.1703C21.0665 14.0637 20.9399 13.9793 20.8005 13.9218C20.6611 13.8644 20.5118 13.8351 20.361 13.8356C20.2103 13.8361 20.0611 13.8664 19.9222 13.9248C19.7832 13.9833 19.6571 14.0686 19.5513 14.1759ZM6.97773 7.45184C6.74251 9.27083 6.73232 11.1119 6.94739 12.9334C7.00278 13.301 7.0892 13.6622 7.16852 14.0249L11.1313 12.5729C10.958 12.2457 10.791 11.9148 10.5969 11.6002C9.56907 10.0713 8.35314 8.67757 6.97773 7.45184ZM31.2571 22.9434C30.465 22.9389 29.7 23.2321 29.1137 23.7649C29.0254 23.8685 28.9155 23.9517 28.7919 24.0087C28.6682 24.0658 28.5337 24.0953 28.3975 24.0953C28.2613 24.0953 28.1267 24.0658 28.0031 24.0087C27.8794 23.9517 27.7696 23.8685 27.6812 23.7649C27.095 23.2321 26.33 22.9389 25.5378 22.9434C24.8574 22.9313 24.1932 23.1519 23.6551 23.5686C25.519 24.5573 27.4395 25.4355 29.4066 26.1984C29.8203 26.0515 30.2045 25.8321 30.5412 25.5506C30.8414 25.3101 30.943 25.2291 31.2571 25.2291C31.5603 25.2291 31.8509 25.1087 32.0653 24.8944C32.2796 24.6801 32.4 24.3894 32.4 24.0863C32.4 23.7832 32.2796 23.4925 32.0653 23.2782C31.8509 23.0638 31.5603 22.9434 31.2571 22.9434ZM28.2298 28.1588C25.4618 27.1156 22.7976 25.8152 20.2722 24.2749C18.1798 22.8685 15.8238 21.9013 13.3468 21.4317L11.0093 15.0518L8.86298 15.8383L10.8404 21.2352C10.7863 21.2348 10.7403 21.2291 10.6857 21.2291C4.66782 21.2291 1.36646 26.2197 0.461886 28.8586C0.402832 29.0307 0.385717 29.2143 0.411965 29.3944C0.438214 29.5744 0.507067 29.7455 0.612796 29.8935C0.718526 30.0416 0.858075 30.1622 1.01984 30.2454C1.1816 30.3287 1.36089 30.3721 1.5428 30.372H27.8286C28.0963 30.372 28.3555 30.2779 28.561 30.1063C28.7665 29.9347 28.9052 29.6963 28.953 29.4329C29.0008 29.1695 28.9545 28.8976 28.8224 28.6648C28.6902 28.4319 28.4805 28.2529 28.2298 28.1588ZM19.5513 7.7109C19.7656 7.92522 20.0563 8.04563 20.3594 8.04562C20.6625 8.04561 20.9532 7.92519 21.1675 7.71086C21.3819 7.49653 21.5023 7.20583 21.5023 6.90273C21.5022 6.59962 21.3818 6.30893 21.1675 6.09461L20.3594 5.28651C20.2533 5.18038 20.1273 5.0962 19.9886 5.03876C19.8499 4.98133 19.7013 4.95176 19.5512 4.95176C19.4012 4.95176 19.2525 4.98133 19.1139 5.03876C18.9752 5.0962 18.8492 5.18038 18.7431 5.28651C18.637 5.39264 18.5528 5.51863 18.4954 5.65729C18.4379 5.79595 18.4084 5.94457 18.4084 6.09465C18.4084 6.24474 18.4379 6.39336 18.4954 6.53202C18.5528 6.67068 18.637 6.79667 18.7431 6.9028L19.5513 7.7109ZM17.5428 12.0863H18.6857C18.9888 12.0863 19.2795 11.9659 19.4938 11.7515C19.7081 11.5372 19.8286 11.2465 19.8286 10.9434C19.8286 10.6403 19.7081 10.3496 19.4938 10.1353C19.2795 9.92095 18.9888 9.80054 18.6857 9.80054H17.5428C17.2397 9.80054 16.949 9.92095 16.7347 10.1353C16.5204 10.3496 16.4 10.6403 16.4 10.9434C16.4 11.2465 16.5204 11.5372 16.7347 11.7515C16.949 11.9659 17.2397 12.0863 17.5428 12.0863ZM2.31791 15.7286C3.22902 15.4782 4.12468 15.1747 5.00026 14.8195C4.87993 14.3089 4.76597 13.7964 4.68789 13.2782C4.37946 10.5749 4.48867 7.84025 5.0117 5.17015C5.33138 4.99527 5.66285 4.84285 6.0037 4.71403C6.3292 4.59948 6.66204 4.50696 6.99996 4.4371C9.13835 6.13511 11.0077 8.14674 12.5445 10.4038C12.8183 10.8478 13.0619 11.3117 13.2994 11.7783L15.5886 10.9395C15.872 10.8336 16.1023 10.6203 16.2296 10.3458C16.3568 10.0713 16.3707 9.75768 16.2683 9.47297C15.6035 7.66954 14.3124 6.16525 12.6307 5.23461C10.949 4.30396 8.98868 4.009 7.10755 4.40356L6.684 3.24751C6.57925 2.96345 6.36608 2.73256 6.09127 2.60551C5.81647 2.47846 5.50248 2.46563 5.21822 2.56984C4.93397 2.67406 4.70267 2.88679 4.5751 3.16136C4.44753 3.43593 4.43412 3.74989 4.53779 4.03435L4.95995 5.18662C3.26861 6.10121 1.96267 7.59365 1.28059 9.39139C0.598514 11.1891 0.58582 13.1722 1.24483 14.9786C1.32541 15.1984 1.47153 15.3882 1.66343 15.5223C1.85534 15.6564 2.08378 15.7284 2.31791 15.7286Z" fill="white"/>
</g>
<defs>
<clipPath id="clip0_3718_8054">
<rect width="32" height="32" fill="white" transform="translate(0.400009 0.5)"/>
</clipPath>
</defs>
</svg>
