<svg width="24" height="21" viewBox="0 0 24 21" fill="none" xmlns="http://www.w3.org/2000/svg">
<path d="M23.0002 11.9998C23.2502 11.9998 23.5003 11.7497 23.5003 11.4997V8.49966C23.5003 7.64958 22.8504 6.99966 22.0003 6.99966H18V20.9998H21.9998C22.8499 20.9998 23.4998 20.3499 23.4998 19.4998V16.4998C23.4996 16.3673 23.4468 16.2402 23.3531 16.1464C23.2593 16.0527 23.1323 15.9999 22.9997 15.9997C22.4746 15.9915 21.9738 15.7772 21.6054 15.4031C21.237 15.0289 21.0305 14.5249 21.0305 13.9997C21.0305 13.4746 21.237 12.9706 21.6054 12.5964C21.9738 12.2222 22.4746 12.008 22.9997 11.9998H23.0002Z" fill="white"/>
<path d="M22.6496 5.50015C22.8997 5.40031 23.0494 5.10031 22.9496 4.85023L21.9493 1.99999C21.6992 1.19983 20.7973 0.799988 20.0494 1.05007L5.84961 5.94991H21.8495C22.0866 5.75256 22.3578 5.60015 22.6496 5.50015Z" fill="white"/>
<path d="M0.5 8.50015V11.5002C0.5 11.8002 0.70016 12.0003 1.00016 12.0003C1.2654 11.9962 1.52881 12.0449 1.77505 12.1436C2.02129 12.2422 2.24545 12.3889 2.43447 12.575C2.6235 12.7611 2.77361 12.983 2.87607 13.2277C2.97854 13.4723 3.0313 13.735 3.0313 14.0002C3.0313 14.2655 2.97854 14.5281 2.87607 14.7728C2.77361 15.0175 2.6235 15.2394 2.43447 15.4255C2.24545 15.6116 2.02129 15.7582 1.77505 15.8569C1.52881 15.9556 1.2654 16.0043 1.00016 16.0002C0.70016 16.0002 0.5 16.2003 0.5 16.5003V19.5003C0.5 20.3504 1.14992 21.0003 2 21.0003H17V7.00015H2C1.15184 7.00015 0.5 7.65007 0.5 8.50015ZM6.5 11H9.5C9.8 11 10.0002 11.2002 10.0002 11.5002C10.0002 11.8002 9.8 12.0003 9.5 12.0003H6.5C6.2 12.0003 5.99984 11.8002 5.99984 11.5002C5.99984 11.2002 6.2 11 6.5 11ZM6.5 13.4998H12.9997C13.2997 13.4998 13.4998 13.7 13.4998 14C13.4998 14.3 13.2997 14.5002 12.9997 14.5002H6.5C6.2 14.5002 5.99984 14.3 5.99984 14C5.99984 13.7 6.2 13.4998 6.5 13.4998ZM6.5 15.9997H12.9997C13.2997 15.9997 13.4998 16.1998 13.4998 16.4998C13.4998 16.7998 13.2997 17 12.9997 17H6.5C6.2 17 5.99984 16.7998 5.99984 16.4998C5.99984 16.1998 6.2 16.0002 6.5 16.0002V15.9997Z" fill="white"/>
</svg>
