<svg width="20" height="20" viewBox="0 0 20 20" fill="none" xmlns="http://www.w3.org/2000/svg">
<path d="M21.0002 10.9999C21.2502 10.9999 21.5003 10.7498 21.5003 10.4997V7.49969C21.5003 6.64961 20.8504 5.99969 20.0003 5.99969H16V19.9999H19.9998C20.8499 19.9999 21.4998 19.3499 21.4998 18.4999V15.4999C21.4996 15.3673 21.4468 15.2402 21.3531 15.1465C21.2593 15.0527 21.1323 14.9999 20.9997 14.9997C20.4746 14.9916 19.9738 14.7773 19.6054 14.4031C19.237 14.0289 19.0305 13.5249 19.0305 12.9998C19.0305 12.4747 19.237 11.9706 19.6054 11.5964C19.9738 11.2223 20.4746 11.008 20.9997 10.9999H21.0002Z" fill="#5B5D5B"/>
<path d="M20.6503 4.50015C20.9004 4.40031 21.0501 4.10031 20.9503 3.85023L19.95 0.999988C19.6999 0.199828 18.798 -0.200012 18.0501 0.0500676L3.85028 4.94991H19.8501C20.0873 4.75256 20.3584 4.60015 20.6503 4.50015Z" fill="#5B5D5B"/>
<path d="M-1.49982 7.50012V10.5001C-1.49982 10.8001 -1.29966 11.0003 -0.999657 11.0003C-0.734416 10.9962 -0.471008 11.0449 -0.224766 11.1435C0.0214766 11.2422 0.245634 11.3888 0.434657 11.575C0.62368 11.7611 0.773793 11.9829 0.876256 12.2276C0.97872 12.4723 1.03149 12.7349 1.03149 13.0002C1.03149 13.2655 0.97872 13.5281 0.876256 13.7728C0.773793 14.0175 0.62368 14.2393 0.434657 14.4254C0.245634 14.6116 0.0214766 14.7582 -0.224766 14.8569C-0.471008 14.9555 -0.734416 15.0042 -0.999657 15.0001C-1.29966 15.0001 -1.49982 15.2003 -1.49982 15.5003V18.5003C-1.49982 19.3504 -0.849897 20.0003 0.000183105 20.0003H15.0002V6.00012H0.000183105C-0.847977 6.00012 -1.49982 6.65004 -1.49982 7.50012ZM4.50018 9.99996H7.50018C7.80018 9.99996 8.00034 10.2001 8.00034 10.5001C8.00034 10.8001 7.80018 11.0003 7.50018 11.0003H4.50018C4.20018 11.0003 4.00002 10.8001 4.00002 10.5001C4.00002 10.2001 4.20018 9.99996 4.50018 9.99996ZM4.50018 12.4998H10.9999C11.2999 12.4998 11.5 12.7 11.5 13C11.5 13.3 11.2999 13.5001 10.9999 13.5001H4.50018C4.20018 13.5001 4.00002 13.3 4.00002 13C4.00002 12.7 4.20018 12.4998 4.50018 12.4998ZM4.50018 14.9996H10.9999C11.2999 14.9996 11.5 15.1998 11.5 15.4998C11.5 15.7998 11.2999 16 10.9999 16H4.50018C4.20018 16 4.00002 15.7998 4.00002 15.4998C4.00002 15.1998 4.20018 15.0001 4.50018 15.0001V14.9996Z" fill="#5B5D5B"/>
</svg>
