<svg width="32" height="24" viewBox="0 0 32 24" fill="none" xmlns="http://www.w3.org/2000/svg">
<path d="M32 14.2143V22.2143C32 22.8451 31.488 23.3571 30.8572 23.3571C30.2263 23.3571 29.7143 22.8451 29.7143 22.2143V21.0714H2.28573V22.2143C2.28573 22.8451 1.77373 23.3571 1.14287 23.3571C0.512015 23.3571 1.52588e-05 22.8451 1.52588e-05 22.2143V14.2143C1.52588e-05 12.324 1.5383 10.7857 3.42859 10.7857H28.5714C30.4617 10.7857 32 12.324 32 14.2143Z" fill="white"/>
<path d="M3.42859 8.5V1.64286C3.42859 1.012 3.94059 0.5 4.57144 0.5H27.4286C28.0594 0.5 28.5714 1.012 28.5714 1.64286V8.5H25.1429V7.35714C25.1429 6.09657 24.1177 5.07143 22.8572 5.07143H19.4286C18.168 5.07143 17.1429 6.09657 17.1429 7.35714V8.5H14.8572V7.35714C14.8572 6.09657 13.832 5.07143 12.5714 5.07143H9.14287C7.8823 5.07143 6.85716 6.09657 6.85716 7.35714V8.5H3.42859Z" fill="white"/>
</svg>
