<svg width="20" height="21" viewBox="0 0 20 21" fill="none" xmlns="http://www.w3.org/2000/svg">
<path d="M17.0711 3.42895C15.1823 1.54016 12.6711 0.5 10 0.5C7.32892 0.5 4.81767 1.54016 2.92895 3.42891C1.04016 5.31767 0 7.82892 0 10.5C0 13.1711 1.04016 15.6823 2.92895 17.5711C4.81767 19.4598 7.32892 20.5 10 20.5C12.6712 20.5 15.1823 19.4598 17.0711 17.5711C18.9598 15.6823 20 13.1711 20 10.5C20 7.82888 18.9598 5.31767 17.0711 3.42895ZM3.75845 4.25845C4.63778 3.37911 5.67009 2.7084 6.79525 2.27063C6.49556 2.64477 6.21513 3.07481 5.95814 3.55848C5.65966 4.1202 5.40212 4.73712 5.18763 5.39606C4.44458 5.27274 3.7561 5.1211 3.14102 4.94313C3.3338 4.70618 3.53946 4.47743 3.75845 4.25845ZM2.43083 5.95255C3.15024 6.1829 3.97298 6.37716 4.87071 6.53103C4.62071 7.5922 4.47356 8.73412 4.43845 9.9135H1.19281C1.285 8.49814 1.71008 7.14736 2.43083 5.95255ZM2.36696 14.939C1.68512 13.7711 1.28223 12.4593 1.19278 11.0865H4.44067C4.47903 12.2322 4.62325 13.3417 4.86481 14.3751C3.94864 14.5236 3.10524 14.7129 2.36696 14.939ZM3.75845 16.7416C3.50923 16.4923 3.27712 16.2306 3.06192 15.9582C3.69954 15.7814 4.41235 15.6317 5.17966 15.5116C5.39567 16.1797 5.65599 16.8048 5.9581 17.3734C6.23818 17.9005 6.54611 18.3636 6.87646 18.7603C5.71982 18.3235 4.65892 17.642 3.75845 16.7416ZM9.41346 19.1764C8.52252 18.9268 7.6797 18.1132 6.99408 16.8229C6.75427 16.3717 6.54365 15.8794 6.36322 15.3547C7.32923 15.2483 8.35717 15.1855 9.41346 15.1707V19.1764ZM9.41346 13.9976C8.24205 14.0135 7.10029 14.0871 6.03103 14.2127C5.79517 13.2376 5.65325 12.1823 5.61431 11.0866H9.4135V13.9976H9.41346ZM9.41346 9.91346H5.61208C5.64767 8.78713 5.79185 7.70232 6.03505 6.70247C7.09748 6.83529 8.23685 6.91607 9.41346 6.93919V9.91346ZM9.41346 5.76595C8.35306 5.74458 7.3274 5.67544 6.36822 5.56263C6.54755 5.04341 6.75654 4.55606 6.99408 4.10891C7.67966 2.8186 8.52252 2.005 9.41346 1.75543V5.76595ZM17.6062 6.01485C18.3044 7.19427 18.7166 8.52263 18.8073 9.91346H15.5617C15.5269 8.74767 15.3826 7.61857 15.1378 6.56786C16.0415 6.42193 16.8744 6.23626 17.6062 6.01485ZM16.2416 4.25845C16.4771 4.49395 16.6971 4.74083 16.9023 4.99712C16.2744 5.16856 15.5752 5.31407 14.824 5.43118C14.6073 4.75899 14.3457 4.1302 14.0419 3.55848C13.7849 3.07481 13.5045 2.64477 13.2048 2.27063C14.3299 2.7084 15.3623 3.37911 16.2416 4.25845ZM10.5866 11.0866H14.3858C14.3466 12.1908 14.2027 13.2542 13.9635 14.2355C12.9012 14.1034 11.7624 14.0234 10.5866 14.0009V11.0866ZM10.5866 9.91346V6.9431C11.7587 6.92771 12.9013 6.85478 13.9716 6.72966C14.2108 7.72197 14.3527 8.79732 14.388 9.91346H10.5866ZM10.5865 1.75543H10.5865C11.4775 2.005 12.3203 2.8186 13.0059 4.10891C13.2473 4.56309 13.4591 5.05884 13.6403 5.58735C12.673 5.69329 11.6439 5.75567 10.5865 5.76993V1.75543ZM10.5866 19.1764V15.1741C11.646 15.1949 12.6708 15.2634 13.6297 15.3755C13.4508 15.8924 13.2425 16.3776 13.006 16.8229C12.3203 18.1132 11.4775 18.9268 10.5866 19.1764ZM16.2416 16.7416C15.3411 17.642 14.2802 18.3235 13.1235 18.7603C13.4539 18.3636 13.7618 17.9005 14.0419 17.3734C14.3396 16.8132 14.5965 16.1981 14.8107 15.5411C15.571 15.6666 16.2744 15.8218 16.9011 16.0044C16.6963 16.2601 16.4766 16.5065 16.2416 16.7416ZM17.6018 14.9926C16.8739 14.7585 16.0393 14.5616 15.1282 14.4062C15.3741 13.364 15.5207 12.2437 15.5594 11.0866H18.8073C18.7164 12.4803 18.3027 13.8113 17.6018 14.9926Z" fill="#0078B8"/>
</svg>
