<svg width="24" height="24" viewBox="0 0 24 24" fill="none" xmlns="http://www.w3.org/2000/svg">
<path d="M1.50469 3.00937H22.4906C23.3203 3.00937 23.9953 3.68437 23.9953 4.51406C23.9953 5.34374 23.3203 6.01874 22.4906 6.01874H1.50469C0.675 6.02343 0 5.34843 0 4.51406C0 3.68437 0.675 3.00937 1.50469 3.00937Z" fill="#323332"/>
<path d="M5.30156 10.4953H18.6937C19.5234 10.4953 20.1984 11.1703 20.1984 12C20.1984 12.8297 19.5234 13.5047 18.6937 13.5047H5.30156C4.47187 13.5047 3.79688 12.8297 3.79688 12C3.79688 11.1703 4.47187 10.4953 5.30156 10.4953Z" fill="#323332"/>
<path d="M9.09844 17.9766H14.8969C15.7266 17.9766 16.4016 18.6516 16.4016 19.4813C16.4016 20.3109 15.7266 20.9859 14.8969 20.9859H9.09844C8.26875 20.9859 7.59375 20.3109 7.59375 19.4813C7.59375 18.6516 8.26875 17.9766 9.09844 17.9766Z" fill="#323332"/>
</svg>
