<svg width="24" height="24" viewBox="0 0 24 24" fill="none" xmlns="http://www.w3.org/2000/svg">
<g clip-path="url(#clip0_4478_4493)">
<path d="M4.78196 3.25169C4.77873 1.8595 5.88899 0.65805 7.38363 0.637933L16.5106 0.616782C17.9508 0.613445 19.1211 1.77825 19.1244 3.21846C19.1276 4.61065 18.0256 5.82023 16.5227 5.83221L15.8707 5.83352L15.8833 11.2759C18.9292 12.6697 21.129 15.9561 21.1179 19.5121C21.1168 19.896 20.7955 20.1689 20.4675 20.1656L12.6439 20.1836L12.658 26.0511C12.6588 26.4111 12.3676 26.7037 12.0076 26.7045C11.6752 26.7053 11.3566 26.4465 11.3541 26.0541L11.3403 20.1866L3.51738 20.2049C3.18503 20.2056 2.86486 19.9508 2.86394 19.5544C2.85586 16.066 4.87328 12.7878 8.05947 11.294L8.04685 5.85165L7.39572 5.85336C5.90581 5.85299 4.78519 4.64389 4.78196 3.25169ZM7.38665 1.94179C6.66655 1.94346 6.08415 2.52857 6.08582 3.24867C6.0874 3.93087 6.63463 4.5402 7.3927 4.54951L8.69655 4.54648C9.0289 4.54571 9.34859 4.81714 9.34998 5.19689L9.36529 11.7137C9.36591 11.9768 9.20829 12.2145 8.96567 12.3164C6.40865 13.3896 4.43801 15.8006 4.19328 18.8996L19.7847 18.8634C19.5652 15.9413 17.4883 13.2976 14.9832 12.3026C14.6926 12.1872 14.5806 11.9018 14.5796 11.7031L14.5654 5.18485C14.5646 4.85248 14.8219 4.5383 15.2159 4.53139L16.5197 4.52836C17.2398 4.52669 17.8222 3.94158 17.8205 3.22148C17.819 2.53928 17.2783 1.92822 16.5137 1.92064L7.38665 1.94179Z" fill="#5B5D5B"/>
</g>
<defs>
<clipPath id="clip0_4478_4493">
<rect width="24" height="24" fill="white"/>
</clipPath>
</defs>
</svg>
