<svg width="24" height="24" viewBox="0 0 24 24" fill="none" xmlns="http://www.w3.org/2000/svg">
<path d="M17.4816 1.92H6.5184C5.79952 1.93012 5.11396 2.22478 4.61192 2.73941C4.10989 3.25404 3.83231 3.94669 3.84 4.6656V20.352C3.83807 20.6653 3.92797 20.9722 4.09858 21.235C4.26919 21.4977 4.51304 21.7047 4.8 21.8304C5.07244 21.9591 5.3772 22.0032 5.67496 21.957C5.97271 21.9108 6.24978 21.7764 6.4704 21.5712L11.6064 17.0208C11.7237 16.9273 11.8692 16.8764 12.0192 16.8764C12.1692 16.8764 12.3147 16.9273 12.432 17.0208L17.568 21.5712C17.7899 21.7742 18.0669 21.907 18.364 21.9531C18.6612 21.9993 18.9654 21.9566 19.2384 21.8304C19.5254 21.7047 19.7692 21.4977 19.9398 21.235C20.1104 20.9722 20.2003 20.6653 20.1984 20.352V4.6656C20.2022 4.30641 20.1347 3.95003 19.9999 3.61708C19.8651 3.28413 19.6656 2.98122 19.4129 2.72589C19.1603 2.47055 18.8595 2.26785 18.528 2.12952C18.1965 1.99119 17.8408 1.91998 17.4816 1.92ZM19.2 20.352C19.204 20.4785 19.1706 20.6033 19.104 20.7109C19.0374 20.8184 18.9406 20.904 18.8256 20.9568C18.7209 21.0062 18.6039 21.0234 18.4894 21.0063C18.375 20.9892 18.2681 20.9386 18.1824 20.8608L13.0464 16.32C12.7537 16.073 12.383 15.9375 12 15.9375C11.617 15.9375 11.2463 16.073 10.9536 16.32L5.8176 20.8608C5.73188 20.9386 5.62503 20.9892 5.51055 21.0063C5.39607 21.0234 5.2791 21.0062 5.1744 20.9568C5.05943 20.904 4.96258 20.8184 4.89599 20.7109C4.82939 20.6033 4.796 20.4785 4.8 20.352V4.6656C4.79228 4.20128 4.96871 3.75279 5.29072 3.41819C5.61273 3.08358 6.05413 2.89009 6.5184 2.88H17.4816C17.9459 2.89009 18.3873 3.08358 18.7093 3.41819C19.0313 3.75279 19.2077 4.20128 19.2 4.6656V20.352Z" fill="#5B5D5B"/>
</svg>
