<svg width="24" height="24" viewBox="0 0 24 24" fill="none" xmlns="http://www.w3.org/2000/svg">
<path d="M18.2575 1.68683C18.1061 1.5363 17.879 1.49149 17.6818 1.57347C17.4846 1.65545 17.3559 1.84811 17.3559 2.06163V4.8824C14.5006 4.99598 13.0709 6.17963 12.8524 6.37642C11.4118 7.55863 10.4283 9.20607 10.071 11.0348C9.89242 11.9184 9.86042 12.8254 9.97667 13.7193L9.97709 13.7224C9.97812 13.7303 9.97936 13.7383 9.9806 13.7462L10.0929 14.3919C10.1307 14.6093 10.2998 14.7805 10.5169 14.821C10.7341 14.8615 10.9534 14.7625 11.067 14.5732L11.4036 14.0121C12.4377 12.2926 13.7265 11.1527 15.2345 10.6243C15.9148 10.3837 16.6354 10.2782 17.3559 10.3133V13.2349C17.3559 13.4488 17.485 13.6419 17.6828 13.7234C17.8808 13.8052 18.1084 13.7594 18.2593 13.6076L23.8457 7.99289C24.0516 7.78598 24.0508 7.45125 23.8439 7.24537L18.2575 1.68683ZM18.4134 11.9537V9.83775C18.4134 9.57839 18.2251 9.35723 17.9688 9.31593C17.5166 9.24304 16.3104 9.12719 14.8849 9.62671C13.3643 10.1595 12.0487 11.2079 10.9652 12.7484C10.9621 12.2422 11.01 11.7369 11.1083 11.2403C11.4296 9.61577 12.2457 8.25122 13.5336 7.18507C13.545 7.17578 13.5557 7.16607 13.5662 7.15575C13.6032 7.12147 14.9459 5.90932 17.8804 5.93121H17.8843C18.1763 5.93121 18.4132 5.69435 18.4134 5.40237V3.33345L22.7236 7.62202L18.4134 11.9537Z" fill="#5B5D5B"/>
<path d="M22.0627 17.0989C21.771 17.0989 21.5341 17.3355 21.5341 17.6275V19.8616C21.5333 20.7372 20.8237 21.4465 19.9482 21.4475H2.64318C1.76763 21.4465 1.05831 20.7372 1.05727 19.8616V7.26725C1.05831 6.3917 1.76763 5.68238 2.64318 5.68134H6.29924C6.59123 5.68134 6.82788 5.4447 6.82788 5.15271C6.82788 4.86072 6.59123 4.62407 6.29924 4.62407H2.64318C1.18406 4.62572 0.00165199 5.80813 0 7.26725V19.8616C0.00165199 21.3207 1.18406 22.5031 2.64318 22.5048H19.9482C21.4073 22.5031 22.5897 21.3207 22.5914 19.8616V17.6275C22.5914 17.3355 22.3547 17.0989 22.0627 17.0989Z" fill="#5B5D5B"/>
</svg>
