<svg width="19" height="19" viewBox="0 0 19 19" fill="none" xmlns="http://www.w3.org/2000/svg">
<path d="M18.4434 0H12.877C12.3811 0 12.1341 0.600912 12.4834 0.950223L14.0658 2.53316L9.08104 7.2249L4.89179 2.57502L6.51659 0.950186C6.86575 0.601061 6.61901 0 6.12305 0H0.556641C0.248967 0 0 0.248967 0 0.556641V6.12305C0 6.61768 0.599316 6.86631 0.950186 6.51663L2.53424 4.93258L7.31055 10.1718V18.4088C7.31055 18.7165 7.55951 19 7.86719 19H10.0938C10.4014 19 10.6504 18.751 10.6504 18.4434V10.262L16.4267 4.89395L18.0498 6.51659C18.4044 6.8688 19 6.61449 19 6.12305V0.556641C19 0.248967 18.751 0 18.4434 0Z" fill="#5B5D5B"/>
</svg>
