<svg width="200" height="56" viewBox="0 0 200 56" fill="none" xmlns="http://www.w3.org/2000/svg">
<path d="M41.8054 49.4728C49.7455 50.3487 57.6197 45.2814 65.0512 43.2422C72.0683 41.3113 79.9519 45.9454 82.3914 48.107C81.652 46.9202 80.1261 45.2767 78.9158 44.2076C77.1922 42.6865 75.1906 41.4808 72.9866 40.8027C69.7889 39.8231 66.3699 40.0633 63.1816 40.9487C58.4627 42.2579 54.3843 45.3237 49.5666 46.2327C45.1679 47.0662 40.3172 46.6942 36.5214 44.1417C27.3804 37.9958 27.4369 23.114 36.0599 14.5287C34.2043 15.5459 31.0443 17.4156 28.6755 23.3118C25.2234 31.8971 28.1433 44.6267 37.4068 48.3708C38.8667 48.9594 40.336 49.3126 41.8101 49.4728H41.8054Z" fill="#5C90C6"/>
<path d="M66.8643 44.8528C62.1172 45.1965 58.5475 47.0945 54.8411 48.658C49.8115 50.7819 44.0235 52.1006 38.5888 50.9939C32.1134 49.6799 28.3599 44.8904 26.641 38.7399C25.3741 34.2 25.7886 27.8611 27.0366 23.3165C25.4165 27.2441 24.3805 33.0038 24.7525 37.2376C25.1245 41.4714 26.7587 45.6392 29.6315 48.7757C33.3331 52.8211 39.0786 54.2481 44.3909 54.1633C50.7863 54.0597 55.9855 51.3141 61.7687 48.9358C75.8029 43.1715 83.6912 53.763 88.2876 56.0047C84.7508 51.9122 78.346 44.0239 66.8691 44.8528H66.8643Z" fill="#0078B8"/>
<path d="M58.75 6.85227C52.3498 1.75194 47.4567 1.44582 41.8007 1.96857C41.8007 1.96857 42.6295 2.39713 43.5526 3.5274C44.6781 4.91197 44.6405 5.97631 44.6405 5.97631C44.6405 5.97631 37.1807 4.75185 28.6142 8.29807C21.6207 11.1897 16.8218 16.5584 9.66813 17.8394C2.51448 19.1298 0.49884 13.4643 0.49884 13.4643C0.49884 13.4643 2.04354 17.538 9.19718 16.2523C16.3508 14.9713 20.5705 8.42522 27.5593 5.53362C36.1258 1.98741 43.9058 5.38763 43.9058 5.38763C43.9058 5.38763 43.854 4.61528 42.2857 3.31076C40.6469 1.94503 38.7066 1.10203 38.7066 1.10203C39.4083 0.791212 52.882 -2.38766 58.75 6.85698" fill="#C25128"/>
<path d="M58.5522 7.10187C53.4566 2.95285 48.328 1.52118 41.8289 2.28882L41.9467 1.69072C42.3705 1.9309 42.7002 2.20405 43.0298 2.50545C44.0753 3.50857 44.9937 4.76128 44.9701 6.29185L44.5934 6.29656C38.6124 6.42371 32.7821 7.68584 27.418 10.2054C21.0603 13.2995 15.2959 18.8566 7.77965 18.8425C4.47362 18.8472 1.22411 16.7656 0.197449 13.5679L0.795548 13.3466C1.16759 14.1519 1.9164 14.8583 2.71229 15.2963C5.29778 16.6715 8.50962 16.2664 11.2081 15.3952C14.9804 14.0954 17.9991 11.3592 21.1686 8.99978C24.3522 6.54145 28.0303 4.53522 32.0568 3.91358C36.0693 3.25426 40.223 3.63101 44.0377 5.09094L43.5903 5.40176C43.2371 4.41749 42.3046 3.71578 41.4946 3.08472C40.3878 2.26998 39.1351 1.61066 37.8777 1.06436C39.0033 0.58871 40.1995 0.386203 41.3957 0.226082C44.1931 -0.131835 47.047 -0.103579 49.8161 0.50394C53.5178 1.281 57.0122 3.41438 59.0231 6.67331L58.4862 7.01239C55.5334 2.20405 49.6042 0.428588 44.2166 0.645223C42.4223 0.711155 40.5621 0.890114 38.8384 1.38461V0.800635C40.4444 1.54944 41.9608 2.46778 43.2229 3.7252C43.6609 4.21498 44.0989 4.66709 44.2307 5.35938L44.3061 5.87742L43.7834 5.6702C38.2969 3.57921 31.859 3.72991 26.5609 6.32952C21.1356 8.92914 17.1844 13.9824 11.4201 15.9933C8.53787 16.9211 5.18004 17.3214 2.40618 15.8473C1.48313 15.3293 0.677812 14.6087 0.197449 13.5774L0.795548 13.356C2.06239 15.9321 4.9116 17.4721 7.75611 17.2272C18.6396 16.0451 23.415 5.31228 38.4805 4.98733C40.5715 4.95436 42.6531 5.10978 44.6923 5.66549L44.3249 5.9669C44.113 4.05957 42.3988 2.55726 40.7693 1.74252L41.7771 1.64833C48.4551 0.871276 53.7203 2.34533 58.9525 6.59796L58.5569 7.09716L58.5522 7.10187Z" fill="#C25128"/>
<path d="M64.6933 16.1487C64.6933 16.1487 65.5457 18.7719 65.8518 20.6321C66.1532 22.4499 64.6038 23.4672 66.2427 25.7936C67.712 27.8799 69.365 30.0086 70.0385 31.412C70.8297 33.0697 70.8721 33.5783 70.5801 34.4731C70.2834 35.3632 69.8548 36.4323 68.8188 36.8655C67.632 37.3647 66.1202 37.2894 65.4892 36.6536C64.844 36.0084 65.8283 35.2596 65.07 34.4213C64.3071 33.5831 62.2868 33.2675 60.7844 32.0525C59.2821 30.8327 59.0514 29.3493 57.0169 29.0431C55.1614 28.77 53.1646 26.5189 53.2776 24.4797C53.4047 22.2333 55.2508 20.3024 55.2508 20.3024C55.2508 20.3024 51.5916 22.5535 51.6764 24.8046C51.7706 27.1452 55.1378 29.4623 56.9604 29.9003C58.7876 30.3335 59.3575 31.1907 60.8598 32.4104C62.3621 33.6301 63.2098 33.7997 63.968 34.6427C64.731 35.481 64.4955 36.0791 65.136 36.729C65.767 37.3647 67.7874 38.1135 68.9742 37.6143C70.0149 37.1764 70.7308 35.6788 71.0228 34.7887C71.3148 33.8986 71.197 32.9991 70.4058 31.3414C69.7324 29.9379 69.3462 27.376 68.0794 25.2238C66.7701 23.0009 67.5613 21.72 67.081 20.3307C66.5394 18.7766 64.7027 16.144 64.7027 16.144" fill="#C25128"/>
<path d="M64.957 15.965C65.0323 16.0734 66.8266 18.6494 67.3729 20.2318C67.5754 20.8063 67.5755 21.3479 67.5755 21.9178C67.5755 22.822 67.5755 23.7545 68.3478 25.0637C69.139 26.4106 69.5864 27.8799 69.9773 29.1797C70.2222 29.9851 70.4341 30.682 70.6837 31.2095C71.4796 32.8766 71.6538 33.8751 71.3147 34.8923C71.1829 35.2973 70.4529 37.3365 69.0872 37.911C68.7764 38.0429 68.4137 38.0994 68.037 38.0994C66.8408 38.0994 65.4703 37.5296 64.9005 36.955C64.5379 36.5877 64.4154 36.2392 64.2977 35.8954C64.1799 35.561 64.0716 35.2455 63.7231 34.8593C63.3558 34.4496 62.9508 34.2047 62.4374 33.8939C61.9665 33.6066 61.3778 33.2487 60.6479 32.66C60.2994 32.3774 59.998 32.1137 59.7201 31.8688C58.8065 31.0635 58.2037 30.5314 56.8756 30.2158C54.9824 29.7637 51.4503 27.3713 51.3467 24.8235C51.2572 22.417 54.9165 20.1376 55.0719 20.0387L57.1676 18.7483L55.4675 20.5285C55.4675 20.5285 53.7014 22.4028 53.5837 24.5033C53.4754 26.453 55.4345 28.4922 57.0546 28.7323C58.5004 28.949 59.122 29.7213 59.7813 30.5408C60.1251 30.9646 60.4783 31.4026 60.9775 31.8076C61.7169 32.4057 62.607 32.7872 63.3935 33.1215C64.1941 33.4606 64.8816 33.7526 65.3008 34.2141C65.8047 34.7698 65.6964 35.3256 65.621 35.7259C65.5551 36.0791 65.5315 36.2533 65.7105 36.4323C66.2333 36.955 67.6273 37.021 68.6916 36.5736C69.5628 36.2062 69.9678 35.2973 70.2787 34.3743C70.5236 33.616 70.5424 33.2063 69.7512 31.5533C69.2614 30.5266 68.2159 29.0855 67.1139 27.5597C66.7372 27.0369 66.3557 26.5095 65.9837 25.9773C64.8675 24.3902 65.136 23.3024 65.3761 22.3463C65.5127 21.8047 65.6399 21.2914 65.541 20.6839C65.2396 18.8661 64.4013 16.2712 64.3919 16.2429M64.3919 16.2429L64.957 15.9603L64.3919 16.2429ZM67.9051 37.4542C68.2489 37.4684 68.5739 37.4307 68.847 37.3177C69.0872 37.214 69.3179 37.0445 69.5252 36.8232C69.3509 36.955 69.1625 37.0681 68.9459 37.1575C68.6115 37.2988 68.2583 37.3977 67.9051 37.4542ZM63.6336 33.908C63.8314 34.0587 64.0151 34.2236 64.1988 34.4261C64.6368 34.9064 64.778 35.3161 64.9052 35.6788C64.924 35.7353 64.9429 35.7871 64.9617 35.8389C64.9711 35.7588 64.99 35.6788 65.0041 35.6034C65.0747 35.2408 65.1265 34.9582 64.8393 34.638C64.5897 34.3648 64.1564 34.1435 63.6384 33.9127L63.6336 33.908ZM53.7768 21.8236C52.8773 22.6336 51.9495 23.7309 51.9919 24.7952C52.0767 26.9239 55.3121 29.1797 57.031 29.5895C57.7374 29.759 58.2743 29.9898 58.7358 30.277C58.2978 29.8202 57.8034 29.4811 56.9698 29.3587C54.8694 29.0479 52.8443 26.5754 52.9573 24.4656C53.0138 23.4813 53.3718 22.563 53.7768 21.8236ZM65.621 18.1643C65.8282 18.9414 66.0402 19.8174 66.1673 20.5756C66.2898 21.3103 66.1391 21.9131 65.9931 22.497C65.7576 23.4436 65.5551 24.2584 66.5017 25.61C66.8737 26.1374 67.2552 26.6649 67.6272 27.1829C68.3242 28.1484 68.9977 29.0808 69.5299 29.905C69.4734 29.7307 69.4215 29.5471 69.365 29.3587C68.9836 28.0966 68.5503 26.6649 67.7921 25.3839C66.9303 23.924 66.9303 22.8597 66.9303 21.9131C66.9303 21.3715 66.9303 20.91 66.7654 20.4343C66.5394 19.7844 66.0731 18.9273 65.6163 18.1691L65.621 18.1643Z" fill="#C25128"/>
<path d="M74.6914 18.0513C72.8265 19.9116 71.5079 18.5035 70.5471 16.1487C69.6994 14.0672 67.9899 14.0059 65.8848 14.5569C67.6555 12.9981 67.4389 9.46132 67.4389 9.46132C67.4389 9.46132 65.8283 10.8836 63.7608 11.5853C61.7734 12.2634 60.6997 12.3953 60.6997 12.3953C60.5678 12.4141 60.1722 12.1551 59.8143 11.8961C59.4281 11.6135 59.0702 11.298 58.7217 10.9778C57.4313 9.79569 55.816 8.76903 54.4031 8.3028C45.832 5.46771 36.5638 8.98096 32.3159 14.5287C36.4555 11.3639 39.526 10.6952 42.9922 10.1206C54.1959 8.26983 60.5066 12.9369 60.5066 12.9369C60.5066 12.9369 61.9288 12.7579 63.8362 11.9432C65.8518 11.0814 67.1563 9.88988 67.1563 9.88988C67.1563 9.88988 66.9632 13.6198 64.4013 15.1174C66.8361 14.8819 68.2725 15.5695 69.3698 17.6416C70.5565 19.888 72.8265 19.9069 74.6914 18.0466" fill="#C25128"/>
<path d="M71.9317 19.7138C71.781 19.7138 71.635 19.7044 71.489 19.6808C70.4906 19.5301 69.6617 18.8755 69.0919 17.797C68.0794 15.8756 66.7701 15.2163 64.4343 15.4376L62.9979 15.5742L64.2459 14.8442C65.946 13.8458 66.5441 11.7595 66.7419 10.634C66.1579 11.072 65.1925 11.7077 63.9633 12.2352C62.0371 13.0593 60.6102 13.2477 60.549 13.2524L60.4218 13.2666L60.3182 13.1912C60.257 13.1441 53.9699 8.62776 43.0487 10.4315C39.5448 11.0107 36.5449 11.6983 32.5137 14.7783L30.6205 16.2288L32.071 14.3356C36.1399 9.01393 45.3893 4.98735 54.5115 8.0014C55.9196 8.46763 57.5773 9.48958 58.943 10.7423C59.3292 11.0955 59.6542 11.3828 60.0121 11.6371C60.4736 11.9715 60.6526 12.0515 60.7044 12.0751C60.9069 12.0468 61.9335 11.8726 63.6666 11.2839C65.6493 10.6104 67.2223 9.23527 67.2364 9.22115L67.7262 8.79259L67.7685 9.44249C67.778 9.57435 67.924 12.2587 66.756 14.0436C68.3431 13.7705 70.0149 13.9636 70.8579 16.031C71.4843 17.5757 72.1577 18.4281 72.8547 18.5741C73.3398 18.6777 73.8861 18.4234 74.4795 17.83L74.9269 18.2821C73.9897 19.2193 72.9442 19.7138 71.9411 19.7138H71.9317ZM66.1626 14.816C67.7309 15.0373 68.7999 15.8803 69.6523 17.4956C70.128 18.3904 70.792 18.9273 71.5832 19.0498C71.814 19.0874 72.0494 19.0827 72.2896 19.0498C71.5361 18.6871 70.8674 17.7688 70.2551 16.2665C69.6052 14.6653 68.4514 14.2508 66.1579 14.816H66.1626ZM48.0595 7.6011C42.7049 7.6011 37.7835 9.72506 34.5199 12.6402C37.5386 10.8271 40.077 10.2808 42.9451 9.80983C51.0453 8.47234 56.5789 10.4691 59.1173 11.7548C58.9195 11.59 58.7217 11.411 58.5098 11.2179C57.2053 10.0218 55.6323 9.05161 54.309 8.60892C52.2085 7.91663 50.1034 7.60581 48.0595 7.60581V7.6011Z" fill="#C25128"/>
<path d="M49.1945 21.899C43.675 25.4216 39.5825 31.5816 40.2607 38.2172C40.5103 40.3317 41.3863 42.4133 42.7802 44.4572C41.65 43.9486 40.6233 43.1715 39.7615 42.2108C35.1651 37.0398 37.2467 28.6758 42.1351 24.4609C44.0659 22.7466 46.4772 21.5175 48.992 21.2961L49.1945 21.899Z" fill="#C25128"/>
<path d="M97.3486 53.9232V50.7349C97.3486 50.6124 97.3768 50.2733 97.3815 50.2404L97.1932 50.7349L95.7992 53.9232H95.1493L93.7553 50.7349C93.7035 50.6124 93.5904 50.2922 93.5716 50.2404C93.5716 50.2686 93.5998 50.6124 93.5998 50.7349V53.9232H92.6721V48.7239H93.7976L95.5119 52.5292L97.2167 48.7239H98.3093V53.9232H97.3486Z" fill="#5C90C6"/>
<path d="M104.884 53.9232L104.356 52.6422H102.251L101.724 53.9232H100.702L102.91 48.7239H103.735L105.943 53.9232H104.888H104.884ZM103.306 50.0143L102.534 51.9028H104.069L103.306 50.0143Z" fill="#5C90C6"/>
<path d="M112.042 53.9844C111.42 53.9844 110.916 53.7159 110.544 52.9624L109.989 51.851H109.381V53.9232H108.322V48.7239H110.365C111.595 48.7239 112.127 49.4539 112.127 50.2922C112.127 51.0269 111.712 51.6014 110.982 51.7662L111.496 52.661C111.755 53.1131 112 53.2686 112.362 53.2686C112.466 53.2686 112.551 53.2591 112.659 53.2262V53.8949C112.461 53.9561 112.235 53.9891 112.042 53.9891V53.9844ZM109.381 51.1069H110.196C110.855 51.1069 111.091 50.7584 111.091 50.3016C111.091 49.8448 110.855 49.4774 110.196 49.4774H109.381V51.1069Z" fill="#5C90C6"/>
<path d="M115.08 53.9232V48.7239H116.139V53.9232H115.08Z" fill="#5C90C6"/>
<path d="M121.597 54.0692C120.001 54.0692 118.762 52.9153 118.762 51.3235C118.762 49.7318 120.001 48.5779 121.597 48.5779C123.194 48.5779 124.404 49.7318 124.404 51.3235C124.404 52.9153 123.185 54.0692 121.597 54.0692ZM121.597 49.4162C120.557 49.4162 119.874 50.198 119.874 51.3235C119.874 52.4491 120.557 53.2309 121.597 53.2309C122.638 53.2309 123.298 52.4491 123.298 51.3235C123.298 50.198 122.619 49.4162 121.597 49.4162Z" fill="#5C90C6"/>
<path d="M130.71 53.9232L127.988 50.49V53.9232H127.042V48.7239H127.776L130.498 52.1571V48.7239H131.445V53.9232H130.71Z" fill="#5C90C6"/>
<path d="M140.101 54.0362C138.603 54.0362 137.308 53.0048 137.308 51.3235C137.308 49.6423 138.599 48.6109 140.101 48.6109C140.784 48.6109 141.481 48.8087 141.914 49.1384V50.0991C141.5 49.7365 140.934 49.4586 140.214 49.4586C139.183 49.4586 138.42 50.1509 138.42 51.3235C138.42 52.4962 139.183 53.1885 140.214 53.1885C140.934 53.1885 141.495 52.9106 141.914 52.548V53.5087C141.481 53.8384 140.788 54.0362 140.101 54.0362Z" fill="#5C90C6"/>
<path d="M147.09 54.0692C145.493 54.0692 144.255 52.9153 144.255 51.3235C144.255 49.7318 145.493 48.5779 147.09 48.5779C148.686 48.5779 149.897 49.7318 149.897 51.3235C149.897 52.9153 148.677 54.0692 147.09 54.0692ZM147.09 49.4162C146.049 49.4162 145.366 50.198 145.366 51.3235C145.366 52.4491 146.049 53.2309 147.09 53.2309C148.131 53.2309 148.79 52.4491 148.79 51.3235C148.79 50.198 148.112 49.4162 147.09 49.4162Z" fill="#5C90C6"/>
<path d="M154.922 54.0692C153.551 54.0692 152.529 53.2827 152.529 51.5213V48.7239H153.603V51.4884C153.603 52.6139 154.088 53.1602 154.936 53.1602C155.783 53.1602 156.268 52.6139 156.268 51.4884V48.7239H157.3V51.5213C157.3 53.2827 156.287 54.0692 154.917 54.0692H154.922Z" fill="#5C90C6"/>
<path d="M163.86 53.9232L161.138 50.49V53.9232H160.191V48.7239H160.926L163.648 52.1571V48.7239H164.595V53.9232H163.86Z" fill="#5C90C6"/>
<path d="M169.813 49.5481V53.9232H168.753V49.5481H166.992V48.7239H171.569V49.5481H169.808H169.813Z" fill="#5C90C6"/>
<path d="M176.51 51.8416V53.9232H175.45V51.8416L173.415 48.7239H174.569L176.001 50.9845L177.433 48.7239H178.549L176.514 51.8416H176.51Z" fill="#5C90C6"/>
<path d="M179.872 55.0911L179.656 54.8745C180.004 54.5118 180.183 54.2858 180.244 53.9279H180.202C179.915 53.9184 179.688 53.6783 179.688 53.3816C179.688 53.0849 179.938 52.8353 180.244 52.8353C180.55 52.8353 180.842 53.0613 180.842 53.5181C180.842 54.022 180.531 54.6814 179.872 55.0864V55.0911Z" fill="#5C90C6"/>
<path d="M187.968 49.5481V50.8055H189.804V51.6202H187.968V53.9232H186.908V48.7239H190.238V49.5481H187.968Z" fill="#5C90C6"/>
<path d="M192.649 53.9232V48.7239H193.708V53.099H196.04V53.9232H192.649Z" fill="#5C90C6"/>
<path d="M96.3596 6.03755C104.469 6.03755 108.835 10.7423 108.835 19.4029C108.835 29.5518 102.929 41.7775 89.7381 41.7775C81.3694 41.7775 76.9567 37.0257 76.9567 28.3603C76.9567 18.0137 83.3238 6.03284 96.3596 6.03284V6.03755ZM102.416 16.9305C102.416 10.8883 100.928 7.62463 95.7944 7.62463C85.3724 7.62463 83.3709 22.5771 83.3709 30.4466C83.3709 36.0885 85.0663 40.1999 90.2514 40.1999C100.363 40.1999 102.416 24.654 102.416 16.9305Z" fill="#0078B8"/>
<path d="M134.11 32.7495C132.971 36.5594 126.137 41.7822 118.88 41.7822C112.89 41.7822 109.772 38.2172 109.772 32.3775C109.772 24.3055 114.675 17.0812 123.83 17.0812C126.043 17.0812 128.549 17.6322 130.042 19.3982C131.219 20.7922 131.841 23.599 129.75 24.508C129.175 24.7576 128.478 24.7434 127.941 24.4279C127.352 24.0794 127.004 23.4154 126.881 22.7466C126.679 21.654 127.164 20.4108 126.533 19.4076C125.996 18.5552 124.922 18.3245 123.985 18.3245C117.995 18.3245 115.866 25.9491 115.866 32.3351C115.866 37.5814 118.094 40.0915 121.532 39.663C125.196 39.2061 131.195 36.7196 132.679 32.3115L134.115 32.7589L134.11 32.7495Z" fill="#0078B8"/>
<path d="M160.191 37.5296C159.005 39.4086 155.892 41.7068 153.367 41.7068C150.099 41.7068 148.762 40.1245 148.762 37.6991C148.762 36.9079 148.912 36.0649 149.157 35.123L148.908 35.0759C147.372 38.5421 144.598 41.7115 139.945 41.7115C135.293 41.7115 132.669 38.495 132.669 32.9002C132.669 25.7701 136.682 17.9194 144.848 17.0105C148.347 16.6196 152.991 17.505 155.755 18.056C154.516 24.1453 153.462 37.7038 153.462 38.0476C153.462 39.2862 153.909 39.7807 154.898 39.7807C155.788 39.7807 158.058 38.3254 159.146 36.7384L160.187 37.5296H160.191ZM149.906 25.0731C149.906 20.665 148.371 18.6353 145.747 18.6353C140.699 18.6353 138.518 25.7654 138.518 33.5877C138.518 37.1528 139.065 39.5782 141.933 39.5782C146.435 39.5782 149.901 31.9065 149.901 25.0731H149.906Z" fill="#0078B8"/>
<path d="M197.076 37.5296C195.889 39.4086 192.776 41.7068 190.252 41.7068C186.983 41.7068 185.646 40.1245 185.646 37.6991C185.646 36.9079 185.797 36.0649 186.042 35.123L185.792 35.0759C184.257 38.5421 181.483 41.7115 176.83 41.7115C172.177 41.7115 169.554 38.495 169.554 32.9002C169.554 25.7701 173.566 17.9194 181.732 17.0105C185.231 16.6196 189.875 17.505 192.639 18.056C191.401 24.1453 190.346 37.7038 190.346 38.0476C190.346 39.2862 190.793 39.7807 191.782 39.7807C192.672 39.7807 194.942 38.3254 196.03 36.7384L197.071 37.5296H197.076ZM186.79 25.0731C186.79 20.665 185.255 18.6353 182.632 18.6353C177.583 18.6353 175.403 25.7654 175.403 33.5877C175.403 37.1528 175.949 39.5782 178.817 39.5782C183.319 39.5782 186.786 31.9065 186.786 25.0731H186.79Z" fill="#0078B8"/>
<path d="M171.193 36.8797C169.653 39.3192 166.756 41.5985 164.232 41.6974C160.917 41.8293 159.023 40.2187 158.896 37.0539C158.826 35.2737 159.25 32.1844 160.191 25.8549L162.73 9.08924C163.3 5.75495 159.64 4.17729 159.64 4.17729L163.643 4.02188C166.478 3.90885 168.715 6.40957 168.292 9.21639C166.992 17.797 164.797 32.9379 164.458 35.8954C164.199 38.1371 164.114 39.7713 165.749 39.71C166.836 39.6677 168.909 37.8639 170.029 36.1356L171.197 36.8797H171.193Z" fill="#0078B8"/>
<path d="M196.035 40.1622V39.9267H197.49V40.1622H196.892V41.7069H196.628V40.1622H196.035ZM198.239 39.9267L198.889 41.349L199.529 39.9267H199.803V41.7069H199.576V40.3082L198.945 41.7069H198.818L198.192 40.3082V41.7069H197.966V39.9267H198.234H198.239Z" fill="#5C90C6"/>
</svg>
