<svg width="20" height="20" viewBox="0 0 20 20" fill="none" xmlns="http://www.w3.org/2000/svg">
<g clip-path="url(#clip0_3718_22605)">
<path d="M14.5862 0H5.41381C2.42858 0 0 2.42858 0 5.41381V14.5863C0 17.5714 2.42858 20 5.41381 20H14.5863C17.5714 20 20 17.5714 20 14.5863V5.41381C20 2.42858 17.5714 0 14.5862 0ZM18.8275 14.5863C18.8275 16.9249 16.9249 18.8275 14.5862 18.8275H5.41381C3.0751 18.8275 1.17248 16.9249 1.17248 14.5863V5.41381C1.17248 3.0751 3.0751 1.17248 5.41381 1.17248H14.5863C16.9249 1.17248 18.8275 3.0751 18.8275 5.41381V14.5863Z" fill="#444444"/>
<path d="M9.99984 4.53139C6.9844 4.53139 4.53125 6.98454 4.53125 9.99997C4.53125 13.0154 6.9844 15.4686 9.99984 15.4686C13.0153 15.4686 15.4684 13.0154 15.4684 9.99997C15.4684 6.98454 13.0153 4.53139 9.99984 4.53139ZM9.99984 14.2961C7.63107 14.2961 5.70373 12.3689 5.70373 9.99997C5.70373 7.6312 7.63107 5.70387 9.99984 5.70387C12.3688 5.70387 14.2959 7.6312 14.2959 9.99997C14.2959 12.3689 12.3688 14.2961 9.99984 14.2961Z" fill="#444444"/>
<path d="M15.6003 2.58926C14.7092 2.58926 13.9844 3.31421 13.9844 4.20517C13.9844 5.09628 14.7092 5.82122 15.6003 5.82122C16.4914 5.82122 17.2163 5.09628 17.2163 4.20517C17.2163 3.31406 16.4914 2.58926 15.6003 2.58926ZM15.6003 4.64859C15.3558 4.64859 15.1569 4.44961 15.1569 4.20517C15.1569 3.96057 15.3558 3.76175 15.6003 3.76175C15.8449 3.76175 16.0438 3.96057 16.0438 4.20517C16.0438 4.44961 15.8449 4.64859 15.6003 4.64859Z" fill="#444444"/>
</g>
<defs>
<clipPath id="clip0_3718_22605">
<rect width="20" height="20" fill="white"/>
</clipPath>
</defs>
</svg>
