<svg width="20" height="20" viewBox="0 0 20 20" fill="none" xmlns="http://www.w3.org/2000/svg">
<path d="M9.99908 0C5.39421 0 1.66602 3.48192 1.66602 7.77742C1.66602 9.84668 2.53597 11.7216 3.94797 13.1149L4.68929 10.5183C4.18162 9.70834 3.88866 8.77439 3.88866 7.77742C3.88866 4.71482 6.62959 2.22226 9.99947 2.22226C13.3673 2.22226 16.1103 4.71482 16.1103 7.77742C16.1103 11.0517 14.3547 13.3329 12.777 13.3329C11.2364 13.3329 9.53314 11.1446 9.45919 7.98542L10.3122 4.99984L8.17388 4.38918L3.88827 19.3884L6.02551 20L8.23911 12.2532C9.24409 14.2485 10.8997 15.5552 12.7767 15.5552C15.8452 15.5552 18.3321 12.0743 18.3321 7.77742C18.3321 3.48192 14.6019 0 9.99908 0Z" fill="#444444"/>
</svg>
