<svg width="20" height="20" viewBox="0 0 20 20" fill="none" xmlns="http://www.w3.org/2000/svg">
<g clip-path="url(#clip0_3718_22616)">
<path d="M14.7825 13.4457C13.3417 13.4457 12.1738 12.2777 12.1738 10.837C12.1738 9.39623 13.3417 8.22833 14.7825 8.22833C16.2232 8.22833 17.3912 9.39623 17.3912 10.837C17.3882 12.2764 16.2221 13.4427 14.7825 13.4457ZM14.7825 9.09784C13.8219 9.09784 13.0433 9.87644 13.0433 10.837C13.0433 11.7975 13.8219 12.5761 14.7825 12.5761C15.743 12.5761 16.5215 11.7975 16.5215 10.837C16.5215 9.87644 15.743 9.09784 14.7825 9.09784Z" fill="#444444"/>
<path d="M14.7818 16.0544C11.9002 16.0544 9.56445 13.7185 9.56445 10.837C9.56445 7.95543 11.9002 5.61964 14.7818 5.61964C17.6633 5.61964 19.9992 7.95543 19.9992 10.837C19.9962 13.7172 17.662 16.0514 14.7818 16.0544ZM14.7818 6.48916C12.3806 6.48916 10.434 8.43565 10.434 10.837C10.434 13.2383 12.3806 15.1848 14.7818 15.1848C17.1831 15.1848 19.1296 13.2383 19.1296 10.837C19.1267 8.43692 17.1818 6.49218 14.7818 6.48916Z" fill="#444444"/>
<path d="M15.2172 10.4022H14.3477V11.2717H15.2172V10.4022Z" fill="#444444"/>
<path d="M5.21807 13.4457C3.77727 13.4457 2.60938 12.2777 2.60938 10.837C2.60938 9.39623 3.77727 8.22833 5.21807 8.22833C6.65887 8.22833 7.82677 9.39623 7.82677 10.837C7.82374 12.2764 6.6576 13.4427 5.21807 13.4457ZM5.21807 9.09784C4.25764 9.09784 3.47889 9.87644 3.47889 10.837C3.47889 11.7975 4.25764 12.5761 5.21807 12.5761C6.1785 12.5761 6.95725 11.7975 6.95725 10.837C6.95725 9.87644 6.1785 9.09784 5.21807 9.09784Z" fill="#444444"/>
<path d="M5.21739 16.0544C2.33595 16.0544 0 13.7185 0 10.837C0 7.95543 2.33595 5.61964 5.21739 5.61964C8.09883 5.61964 10.4348 7.95543 10.4348 10.837C10.4318 13.7172 8.09756 16.0514 5.21739 16.0544ZM5.21739 6.48916C2.81616 6.48916 0.869512 8.43565 0.869512 10.837C0.869512 13.2383 2.81616 15.1848 5.21739 15.1848C7.61862 15.1848 9.56527 13.2383 9.56527 10.837C9.56225 8.43692 7.61735 6.49218 5.21739 6.48916Z" fill="#444444"/>
<path d="M5.65287 10.4022H4.7832V11.2717H5.65287V10.4022Z" fill="#444444"/>
<path d="M9.99966 17.1847L8.02148 14.712L8.70073 14.1684L9.99966 15.7935L11.2986 14.1684L11.978 14.712L9.99966 17.1847Z" fill="#444444"/>
<path d="M18.2555 7.01093L17.4403 6.70649L18.4566 4.01086L13.7772 4.84789L13.625 3.99462L19.8044 2.88039L18.2555 7.01093Z" fill="#444444"/>
<path d="M1.74423 7.01093L0.195312 2.88039L6.37457 3.99462L6.22251 4.84789L1.54313 4.01086L2.55944 6.70649L1.74423 7.01093Z" fill="#444444"/>
<path d="M20.0001 10.837H19.1304C19.1304 7.23909 15.0326 4.31529 9.99995 4.31529C4.96741 4.31529 0.869512 7.23909 0.869512 10.837H0C0 6.76094 4.4837 3.44562 9.99995 3.44562C15.5164 3.44562 20.0001 6.76094 20.0001 10.837Z" fill="#444444"/>
</g>
<defs>
<clipPath id="clip0_3718_22616">
<rect width="20" height="20" fill="white"/>
</clipPath>
</defs>
</svg>
